<svg width="46" height="46" viewBox="0 0 46 46" fill="none" xmlns="http://www.w3.org/2000/svg">
<g clip-path="url(#clip0_2136_259)">
<path d="M14.2547 14.2551C14.6484 14.2551 14.9675 13.936 14.9675 13.5423C14.9675 13.1487 14.6484 12.8296 14.2547 12.8296C13.8611 12.8296 13.542 13.1487 13.542 13.5423C13.542 13.936 13.8611 14.2551 14.2547 14.2551Z" fill="white"/>
<path d="M21.3824 14.2551C21.7761 14.2551 22.0952 13.936 22.0952 13.5423C22.0952 13.1487 21.7761 12.8296 21.3824 12.8296C20.9888 12.8296 20.6697 13.1487 20.6697 13.5423C20.6697 13.936 20.9888 14.2551 21.3824 14.2551Z" fill="white"/>
<path d="M15.6803 20.6699H19.9568C20.1459 20.6699 20.3272 20.5948 20.4608 20.4611C20.5945 20.3275 20.6696 20.1462 20.6696 19.9571C20.6696 19.7681 20.5945 19.5868 20.4608 19.4531C20.3272 19.3195 20.1459 19.2444 19.9568 19.2444H15.6803C15.4913 19.2444 15.31 19.3195 15.1763 19.4531C15.0426 19.5868 14.9675 19.7681 14.9675 19.9571C14.9675 20.1462 15.0426 20.3275 15.1763 20.4611C15.31 20.5948 15.4913 20.6699 15.6803 20.6699Z" fill="white"/>
<path d="M44.903 31.3612C44.9036 28.8688 44.0874 26.4448 42.5794 24.4603C41.0715 22.4758 38.9547 21.0401 36.5532 20.373C34.1517 19.7058 31.5978 19.844 29.2823 20.7664C26.9668 21.6887 25.0173 23.3444 23.7323 25.4801L22.0947 25.0943V24.0251C23.1236 23.7169 24.0258 23.0855 24.6677 22.2244C25.3095 21.3633 25.657 20.3183 25.6585 19.2443V17.8188H26.3713C26.9382 17.8181 27.4816 17.5925 27.8824 17.1917C28.2833 16.7909 28.5088 16.2474 28.5096 15.6805V12.8295C28.5097 12.5289 28.4462 12.2316 28.3234 11.9572C28.2006 11.6829 28.0211 11.4375 27.7968 11.2374V8.55297C27.7944 6.47431 26.9676 4.48146 25.4978 3.01163C24.028 1.54179 22.0351 0.715005 19.9565 0.712646H15.6799C13.6013 0.715005 11.6084 1.54179 10.1386 3.01163C8.66875 4.48146 7.84196 6.47431 7.8396 8.55297V11.2374C7.61529 11.4375 7.43584 11.6829 7.313 11.9572C7.19016 12.2316 7.12673 12.5289 7.12685 12.8295V15.6805C7.1276 16.2474 7.35312 16.7909 7.75396 17.1917C8.1548 17.5925 8.69824 17.8181 9.26512 17.8188H9.97787V19.2443C9.97918 20.3184 10.3265 21.3635 10.9685 22.2246C11.6104 23.0857 12.5127 23.7171 13.5417 24.0251V25.0943L6.37043 26.7817C4.96469 27.108 3.71076 27.9004 2.81276 29.0301C1.91476 30.1597 1.42556 31.5601 1.42479 33.0032L0.713817 44.1454C0.707687 44.2426 0.721521 44.34 0.754466 44.4316C0.787411 44.5232 0.83877 44.6072 0.905378 44.6782C0.971987 44.7492 1.05243 44.8059 1.14176 44.8446C1.23109 44.8834 1.32742 44.9035 1.42479 44.9036H34.2116C34.309 44.9035 34.4053 44.8834 34.4946 44.8446C34.584 44.8059 34.6644 44.7492 34.731 44.6782C34.7976 44.6072 34.849 44.5232 34.8819 44.4316C34.9149 44.34 34.9287 44.2426 34.9226 44.1454L34.8299 42.6869C40.4937 42.0258 44.903 37.1996 44.903 31.3612ZM27.084 12.8295V15.6805C27.0838 15.8695 27.0086 16.0506 26.875 16.1842C26.7414 16.3179 26.5602 16.393 26.3713 16.3933H25.6585V12.1168H26.3713C26.5602 12.117 26.7414 12.1922 26.875 12.3258C27.0086 12.4594 27.0838 12.6406 27.084 12.8295ZM9.97787 16.3933H9.26512C9.07616 16.393 8.89502 16.3179 8.76141 16.1842C8.6278 16.0506 8.55262 15.8695 8.55236 15.6805V12.8295C8.55262 12.6406 8.6278 12.4594 8.76141 12.3258C8.89502 12.1922 9.07616 12.117 9.26512 12.1168H9.97787V16.3933ZM9.26512 10.6912V8.55297C9.26707 6.85226 9.94355 5.22176 11.1461 4.01918C12.3487 2.81659 13.9792 2.14012 15.6799 2.13816H19.9565C21.6572 2.14012 23.2877 2.81659 24.4903 4.01918C25.6929 5.22176 26.3693 6.85226 26.3713 8.55297V10.6912H25.6585V8.79798C25.7028 8.69198 25.7221 8.5772 25.7148 8.46255C25.7076 8.3479 25.674 8.23646 25.6166 8.1369C25.6024 8.11374 25.2629 7.57204 24.6134 7.90258C24.5653 7.92753 24.4958 7.96406 24.4076 8.01217C24.2437 8.10037 24.0112 8.22867 23.7332 8.38191C23.0783 8.74363 21.5352 9.59538 20.41 10.1593L20.6327 9.49114C20.6746 9.36555 20.6807 9.23079 20.6503 9.10194C20.6198 8.9731 20.5542 8.85526 20.4605 8.76165C20.3669 8.66804 20.2491 8.60236 20.1203 8.57195C19.9914 8.54154 19.8566 8.54762 19.7311 8.5895C19.6678 8.61088 13.3929 10.6912 10.6906 10.6912H9.26512ZM11.4034 19.2443V12.0829C13.6218 11.8931 16.9807 10.938 18.8374 10.3687L18.5675 11.1786C18.5318 11.2857 18.522 11.3998 18.5391 11.5115C18.5561 11.6231 18.5994 11.7291 18.6655 11.8208C18.7315 11.9124 18.8184 11.987 18.9189 12.0385C19.0194 12.0899 19.1308 12.1168 19.2437 12.1168C19.6919 12.1168 20.5614 11.7568 24.233 9.73437V19.2443C24.2321 20.1892 23.8563 21.0951 23.1882 21.7633C22.52 22.4314 21.6141 22.8072 20.6692 22.8081H14.9672C14.0223 22.8072 13.1164 22.4314 12.4482 21.7633C11.7801 21.0951 11.4043 20.1892 11.4034 19.2443ZM20.6692 24.2336V25.6591C20.6692 26.4153 20.3689 27.1404 19.8342 27.6751C19.2995 28.2098 18.5743 28.5102 17.8182 28.5102C17.0621 28.5102 16.3369 28.2098 15.8022 27.6751C15.2675 27.1404 14.9672 26.4153 14.9672 25.6591V24.2336H20.6692ZM8.55236 43.4781V35.6377C8.55236 35.4487 8.47727 35.2674 8.3436 35.1337C8.20993 35.0001 8.02864 34.925 7.8396 34.925C7.65057 34.925 7.46928 35.0001 7.33561 35.1337C7.20194 35.2674 7.12685 35.4487 7.12685 35.6377V43.4781H2.18477L2.84852 33.0718C2.84941 33.0567 2.85031 33.0415 2.85031 33.0264C2.84671 31.9009 3.22526 30.8076 3.92398 29.9254C4.6227 29.0431 5.60021 28.4242 6.69652 28.1698L13.6325 26.5376C13.8339 27.4987 14.3598 28.3612 15.122 28.9802C15.8842 29.5993 16.8363 29.9372 17.8182 29.9372C18.8001 29.9372 19.7522 29.5993 20.5144 28.9802C21.2766 28.3612 21.8025 27.4987 22.0039 26.5376L23.0543 26.7844C22.2965 28.5128 21.9796 30.4022 22.132 32.2832C22.2843 34.1642 22.9012 35.978 23.9272 37.5619C24.9533 39.1458 26.3564 40.4502 28.0108 41.3582C29.6652 42.2662 31.5191 42.7494 33.4062 42.7644L33.4516 43.4781H8.55236ZM34.0388 41.3246C34.0352 41.3255 34.0325 41.3246 34.029 41.3255C34.0254 41.3264 34.0227 41.3264 34.0192 41.3264C33.8472 41.3353 33.6735 41.3398 33.4988 41.3398C30.8731 41.3424 28.3519 40.311 26.4808 38.4688C24.6098 36.6266 23.5393 34.1217 23.5012 31.4962C23.4631 28.8707 24.4603 26.3358 26.277 24.44C28.0938 22.5442 30.584 21.44 33.2087 21.3664C35.8334 21.2928 38.3816 22.2556 40.3018 24.0466C42.222 25.8375 43.3597 28.3126 43.4688 30.9361C43.578 33.5596 42.6496 36.1205 40.8848 38.0647C39.12 40.009 36.6605 41.1801 34.0388 41.3246Z" fill="white"/>
<path d="M36.9921 32.0739H38.6119C38.78 32.5494 39.1109 32.9502 39.5459 33.2055C39.981 33.4607 40.4923 33.5539 40.9894 33.4686C41.4866 33.3833 41.9376 33.125 42.2627 32.7393C42.5878 32.3537 42.7661 31.8655 42.7661 31.3611C42.7661 30.8567 42.5878 30.3685 42.2627 29.9829C41.9376 29.5972 41.4866 29.3389 40.9894 29.2536C40.4923 29.1683 39.981 29.2615 39.5459 29.5168C39.1109 29.772 38.78 30.1728 38.6119 30.6484H36.9921C36.9007 30.2018 36.7241 29.777 36.4718 29.3973L37.6173 28.2517C38.0166 28.4419 38.4649 28.5038 38.9007 28.4289C39.3366 28.354 39.7385 28.146 40.0514 27.8335C40.329 27.5566 40.5251 27.2086 40.6182 26.8277C40.7113 26.4468 40.698 26.0476 40.5795 25.6738C40.4611 25.3 40.2421 24.966 39.9466 24.7083C39.6511 24.4506 39.2904 24.279 38.9039 24.2125C38.5175 24.146 38.1202 24.187 37.7555 24.3311C37.3908 24.4751 37.0728 24.7167 36.8361 25.0294C36.5995 25.342 36.4534 25.7137 36.4138 26.1039C36.3742 26.494 36.4426 26.8875 36.6116 27.2413L35.4633 28.3896C35.0837 28.1372 34.6589 27.9605 34.2123 27.8691V26.2492C34.6879 26.0811 35.0887 25.7502 35.3439 25.3152C35.5991 24.8801 35.6923 24.3688 35.607 23.8717C35.5217 23.3745 35.2634 22.9235 34.8778 22.5984C34.4921 22.2733 34.004 22.095 33.4995 22.095C32.9951 22.095 32.507 22.2733 32.1213 22.5984C31.7357 22.9235 31.4774 23.3745 31.3921 23.8717C31.3068 24.3688 31.4 24.8801 31.6552 25.3152C31.9104 25.7502 32.3112 26.0811 32.7868 26.2492V27.8691C32.3402 27.9604 31.9154 28.137 31.5357 28.3893L30.3874 27.2409C30.5559 26.8873 30.6239 26.4942 30.5841 26.1045C30.5443 25.7148 30.3981 25.3436 30.1616 25.0313C29.9251 24.7191 29.6073 24.4779 29.2429 24.3341C28.8786 24.1902 28.4817 24.1493 28.0957 24.2158C27.7097 24.2822 27.3493 24.4535 27.054 24.7109C26.7588 24.9683 26.5399 25.3019 26.4214 25.6753C26.3029 26.0486 26.2894 26.4474 26.3822 26.8279C26.4749 27.2085 26.6706 27.5562 26.9476 27.8331C27.2605 28.1457 27.6624 28.3537 28.0983 28.4286C28.5341 28.5035 28.9824 28.4415 29.3817 28.2514L30.5276 29.3973C30.2754 29.777 30.0988 30.2018 30.0075 30.6484H28.3876C28.2195 30.1728 27.8887 29.772 27.4536 29.5168C27.0185 29.2615 26.5072 29.1683 26.0101 29.2536C25.5129 29.3389 25.062 29.5972 24.7368 29.9829C24.4117 30.3685 24.2334 30.8567 24.2334 31.3611C24.2334 31.8655 24.4117 32.3537 24.7368 32.7393C25.062 33.125 25.5129 33.3833 26.0101 33.4686C26.5072 33.5539 27.0185 33.4607 27.4536 33.2055C27.8887 32.9502 28.2195 32.5494 28.3876 32.0739H30.0075C30.0988 32.5205 30.2754 32.9453 30.5277 33.3249L29.3818 34.4705C28.9261 34.2511 28.4076 34.1999 27.9179 34.326C27.4282 34.452 26.9988 34.7472 26.7057 35.1593C26.4126 35.5713 26.2746 36.0738 26.3162 36.5778C26.3578 37.0817 26.5763 37.5548 26.9331 37.9132C27.2898 38.2716 27.7617 38.4924 28.2655 38.5364C28.7693 38.5804 29.2724 38.4448 29.6859 38.1537C30.0993 37.8626 30.3965 37.4346 30.5249 36.9455C30.6533 36.4564 30.6046 35.9376 30.3874 35.4809L31.5357 34.3326C31.9153 34.5852 32.3401 34.7621 32.7868 34.8536V36.4735C32.3112 36.6416 31.9104 36.9724 31.6552 37.4075C31.4 37.8426 31.3068 38.3539 31.3921 38.851C31.4774 39.3482 31.7357 39.7992 32.1213 40.1243C32.507 40.4494 32.9951 40.6277 33.4995 40.6277C34.004 40.6277 34.4921 40.4494 34.8778 40.1243C35.2634 39.7992 35.5217 39.3482 35.607 38.851C35.6923 38.3539 35.5991 37.8426 35.3439 37.4075C35.0887 36.9724 34.6879 36.6416 34.2123 36.4735V34.8536C34.6589 34.7623 35.0837 34.5857 35.4634 34.3334L36.6117 35.4817C36.3978 35.9352 36.351 36.4497 36.4795 36.9343C36.608 37.419 36.9035 37.8426 37.314 38.1306C37.7245 38.4185 38.2235 38.5521 38.7229 38.508C39.2224 38.4638 39.6901 38.2446 40.0437 37.8891C40.3972 37.5335 40.6138 37.0645 40.6552 36.5649C40.6967 36.0652 40.5602 35.5669 40.27 35.1581C39.9798 34.7492 39.5545 34.456 39.0691 34.3302C38.5838 34.2044 38.0696 34.2541 37.6173 34.4705L36.4714 33.3246C36.7238 32.9451 36.9006 32.5204 36.9921 32.0739ZM33.4995 33.4994C33.0766 33.4994 32.6632 33.374 32.3116 33.139C31.9599 32.9041 31.6859 32.5701 31.524 32.1794C31.3622 31.7887 31.3199 31.3587 31.4024 30.944C31.4849 30.5292 31.6885 30.1482 31.9876 29.8491C32.2866 29.5501 32.6676 29.3464 33.0824 29.2639C33.4972 29.1814 33.9271 29.2238 34.3178 29.3856C34.7085 29.5475 35.0425 29.8215 35.2774 30.1732C35.5124 30.5248 35.6378 30.9382 35.6378 31.3611C35.6372 31.928 35.4117 32.4715 35.0108 32.8724C34.6099 33.2732 34.0664 33.4987 33.4995 33.4994ZM40.6271 30.6484C40.7681 30.6484 40.9059 30.6902 41.0231 30.7685C41.1403 30.8468 41.2317 30.9581 41.2856 31.0884C41.3396 31.2186 41.3537 31.3619 41.3262 31.5002C41.2987 31.6384 41.2308 31.7654 41.1311 31.8651C41.0314 31.9648 40.9044 32.0327 40.7662 32.0602C40.6279 32.0877 40.4846 32.0736 40.3544 32.0196C40.2241 31.9657 40.1128 31.8743 40.0345 31.7571C39.9562 31.6399 39.9144 31.5021 39.9144 31.3611C39.9146 31.1721 39.9897 30.991 40.1233 30.8574C40.257 30.7237 40.4381 30.6486 40.6271 30.6484ZM38.0355 25.8171C38.1692 25.6834 38.3505 25.6083 38.5395 25.6083C38.7286 25.6083 38.9099 25.6834 39.0435 25.8171C39.1772 25.9508 39.2523 26.1321 39.2523 26.3211C39.2523 26.5102 39.1772 26.6915 39.0435 26.8251C38.9775 26.892 38.8989 26.9451 38.8122 26.9814C38.7256 27.0178 38.6326 27.0367 38.5387 27.0369C38.4447 27.0372 38.3516 27.0189 38.2647 26.9831C38.1779 26.9473 38.0989 26.8946 38.0325 26.8282C37.9661 26.7617 37.9134 26.6828 37.8776 26.5959C37.8418 26.509 37.8235 26.416 37.8238 26.322C37.8241 26.228 37.8429 26.135 37.8793 26.0484C37.9156 25.9618 37.9688 25.8831 38.0356 25.8171H38.0355ZM33.4995 23.5208C33.6405 23.5208 33.7783 23.5626 33.8955 23.6409C34.0127 23.7192 34.1041 23.8305 34.158 23.9608C34.212 24.091 34.2261 24.2343 34.1986 24.3726C34.1711 24.5109 34.1032 24.6379 34.0035 24.7375C33.9039 24.8372 33.7769 24.9051 33.6386 24.9326C33.5003 24.9601 33.357 24.946 33.2268 24.892C33.0965 24.8381 32.9852 24.7467 32.9069 24.6295C32.8286 24.5123 32.7868 24.3745 32.7868 24.2335C32.787 24.0446 32.8622 23.8634 32.9958 23.7298C33.1294 23.5962 33.3106 23.521 33.4995 23.5208ZM27.9556 26.8251C27.839 26.7085 27.7665 26.5551 27.7504 26.391C27.7342 26.2269 27.7755 26.0623 27.8671 25.9252C27.9587 25.7881 28.0951 25.687 28.2529 25.6391C28.4107 25.5913 28.5802 25.5996 28.7325 25.6627C28.8848 25.7258 29.0106 25.8398 29.0883 25.9852C29.166 26.1307 29.1909 26.2985 29.1588 26.4603C29.1266 26.622 29.0393 26.7676 28.9119 26.8722C28.7844 26.9768 28.6246 27.034 28.4597 27.034C28.3661 27.0342 28.2733 27.0159 28.1867 26.9801C28.1002 26.9442 28.0216 26.8916 27.9555 26.8251H27.9556ZM26.372 32.0739C26.231 32.0739 26.0932 32.0321 25.976 31.9538C25.8588 31.8754 25.7674 31.7641 25.7135 31.6339C25.6595 31.5036 25.6454 31.3603 25.6729 31.2221C25.7004 31.0838 25.7683 30.9568 25.868 30.8571C25.9677 30.7574 26.0947 30.6896 26.2329 30.6621C26.3712 30.6346 26.5145 30.6487 26.6447 30.7026C26.775 30.7566 26.8863 30.8479 26.9646 30.9651C27.0429 31.0823 27.0847 31.2201 27.0847 31.3611C27.0845 31.5501 27.0094 31.7313 26.8757 31.8649C26.7421 31.9985 26.5609 32.0737 26.372 32.0739ZM28.9636 36.9051C28.8639 37.0048 28.7369 37.0727 28.5986 37.1002C28.4604 37.1277 28.317 37.1136 28.1868 37.0596C28.0566 37.0057 27.9453 36.9143 27.8669 36.7971C27.7886 36.6799 27.7468 36.5421 27.7468 36.4011C27.7468 36.2601 27.7886 36.1223 27.8669 36.0051C27.9453 35.8879 28.0566 35.7966 28.1868 35.7426C28.317 35.6887 28.4604 35.6745 28.5986 35.702C28.7369 35.7295 28.8639 35.7974 28.9636 35.8971C29.0303 35.963 29.0833 36.0414 29.1195 36.128C29.1557 36.2145 29.1743 36.3073 29.1743 36.4011C29.1743 36.4949 29.1557 36.5877 29.1195 36.6743C29.0833 36.7608 29.0303 36.8393 28.9636 36.9051ZM33.4995 39.2014C33.3586 39.2014 33.2208 39.1596 33.1036 39.0813C32.9863 39.003 32.895 38.8917 32.841 38.7614C32.7871 38.6312 32.773 38.4879 32.8005 38.3496C32.828 38.2114 32.8959 38.0844 32.9955 37.9847C33.0952 37.885 33.2222 37.8171 33.3605 37.7896C33.4988 37.7621 33.6421 37.7762 33.7723 37.8302C33.9025 37.8841 34.0139 37.9755 34.0922 38.0927C34.1705 38.2099 34.2123 38.3477 34.2123 38.4887C34.2121 38.6777 34.1369 38.8588 34.0033 38.9924C33.8697 39.1261 33.6885 39.2012 33.4995 39.2014ZM39.0435 35.8971C39.1601 36.0137 39.2327 36.1671 39.2488 36.3312C39.2649 36.4953 39.2237 36.66 39.1321 36.7971C39.0404 36.9342 38.9041 37.0352 38.7463 37.0831C38.5885 37.131 38.419 37.1226 38.2667 37.0595C38.1143 36.9964 37.9886 36.8824 37.9109 36.737C37.8331 36.5916 37.8082 36.4237 37.8404 36.262C37.8726 36.1002 37.9598 35.9547 38.0873 35.8501C38.2148 35.7454 38.3746 35.6883 38.5394 35.6883C38.6331 35.688 38.7259 35.7063 38.8124 35.7422C38.8989 35.778 38.9775 35.8307 39.0435 35.8971Z" fill="white"/>
<path d="M34.212 31.3613C34.6057 31.3613 34.9248 31.0422 34.9248 30.6485C34.9248 30.2549 34.6057 29.9358 34.212 29.9358C33.8184 29.9358 33.4993 30.2549 33.4993 30.6485C33.4993 31.0422 33.8184 31.3613 34.212 31.3613Z" fill="white"/>
<path d="M40.6267 8.55304C40.4376 8.55304 40.2564 8.62814 40.1227 8.7618C39.989 8.89547 39.9139 9.07676 39.9139 9.2658H39.1112C39.0441 9.00802 38.9412 8.76091 38.8056 8.53166L39.374 7.96234C39.4395 8.03132 39.5182 8.08647 39.6054 8.12456C39.6926 8.16265 39.7865 8.1829 39.8816 8.18412C39.9767 8.18533 40.0712 8.1675 40.1593 8.13165C40.2474 8.09581 40.3275 8.04269 40.3947 7.97541C40.462 7.90814 40.5151 7.82808 40.551 7.73996C40.5868 7.65183 40.6047 7.55742 40.6034 7.46229C40.6022 7.36716 40.582 7.27324 40.5439 7.18606C40.5058 7.09888 40.4506 7.02021 40.3817 6.95468L39.8783 6.45041L39.374 5.94702C39.3085 5.87805 39.2298 5.8229 39.1426 5.78481C39.0554 5.74672 38.9615 5.72647 38.8664 5.72525C38.7713 5.72403 38.6769 5.74187 38.5887 5.77772C38.5006 5.81356 38.4206 5.86668 38.3533 5.93396C38.286 6.00123 38.2329 6.08129 38.197 6.16941C38.1612 6.25754 38.1434 6.35195 38.1446 6.44708C38.1458 6.5422 38.166 6.63613 38.2041 6.72331C38.2422 6.81049 38.2974 6.88916 38.3663 6.95468L37.797 7.52311C37.5678 7.38748 37.3207 7.28462 37.0629 7.21751V6.41477C37.2519 6.41477 37.4332 6.33968 37.5669 6.20601C37.7006 6.07234 37.7757 5.89105 37.7757 5.70201C37.7757 5.51298 37.7006 5.33169 37.5669 5.19802C37.4332 5.06435 37.2519 4.98926 37.0629 4.98926H35.6374C35.4483 4.98926 35.2671 5.06435 35.1334 5.19802C34.9997 5.33169 34.9246 5.51298 34.9246 5.70201C34.9246 5.89105 34.9997 6.07234 35.1334 6.20601C35.2671 6.33968 35.4483 6.41477 35.6374 6.41477V7.21751C35.3796 7.28462 35.1325 7.38748 34.9032 7.52311L34.3339 6.95468C34.4029 6.88916 34.4581 6.81049 34.4961 6.72331C34.5342 6.63613 34.5545 6.5422 34.5557 6.44708C34.5569 6.35195 34.5391 6.25754 34.5032 6.16941C34.4674 6.08129 34.4143 6.00123 34.347 5.93396C34.2797 5.86668 34.1997 5.81356 34.1115 5.77772C34.0234 5.74187 33.929 5.72403 33.8339 5.72525C33.7387 5.72647 33.6448 5.74672 33.5576 5.78481C33.4705 5.8229 33.3918 5.87805 33.3263 5.94702L32.822 6.45041L32.3186 6.95468C32.2496 7.02021 32.1945 7.09888 32.1564 7.18606C32.1183 7.27324 32.0981 7.36716 32.0968 7.46229C32.0956 7.55742 32.1135 7.65183 32.1493 7.73996C32.1851 7.82808 32.2383 7.90814 32.3055 7.97541C32.3728 8.04269 32.4529 8.09581 32.541 8.13165C32.6291 8.1675 32.7235 8.18533 32.8187 8.18412C32.9138 8.1829 33.0077 8.16265 33.0949 8.12456C33.1821 8.08647 33.2607 8.03132 33.3263 7.96234L33.8947 8.53166C33.7591 8.76091 33.6562 9.00802 33.5891 9.2658H32.7864C32.7864 9.07676 32.7113 8.89547 32.5776 8.7618C32.4439 8.62814 32.2626 8.55304 32.0736 8.55304C31.8846 8.55304 31.7033 8.62814 31.5696 8.7618C31.4359 8.89547 31.3608 9.07676 31.3608 9.2658V10.6913C31.3608 10.8803 31.4359 11.0616 31.5696 11.1953C31.7033 11.329 31.8846 11.4041 32.0736 11.4041C32.2626 11.4041 32.4439 11.329 32.5776 11.1953C32.7113 11.0616 32.7864 10.8803 32.7864 10.6913H33.5891C33.6562 10.9491 33.7591 11.1962 33.8947 11.4255L33.3263 11.9948C33.2607 11.9258 33.1821 11.8706 33.0949 11.8326C33.0077 11.7945 32.9138 11.7742 32.8187 11.773C32.7235 11.7718 32.6291 11.7896 32.541 11.8255C32.4529 11.8613 32.3728 11.9144 32.3055 11.9817C32.2383 12.049 32.1851 12.129 32.1493 12.2172C32.1135 12.3053 32.0956 12.3997 32.0968 12.4948C32.0981 12.5899 32.1183 12.6839 32.1564 12.771C32.1945 12.8582 32.2496 12.9369 32.3186 13.0024L32.822 13.5067L33.3263 14.0101C33.3918 14.0791 33.4705 14.1342 33.5576 14.1723C33.6448 14.2104 33.7387 14.2306 33.8339 14.2319C33.929 14.2331 34.0234 14.2152 34.1115 14.1794C34.1997 14.1435 34.2797 14.0904 34.347 14.0232C34.4143 13.9559 34.4674 13.8758 34.5032 13.7877C34.5391 13.6996 34.5569 13.6052 34.5557 13.51C34.5545 13.4149 34.5342 13.321 34.4961 13.2338C34.4581 13.1466 34.4029 13.068 34.3339 13.0024L34.9032 12.434C35.1325 12.5696 35.3796 12.6725 35.6374 12.7396V13.5423C35.4483 13.5423 35.2671 13.6174 35.1334 13.7511C34.9997 13.8848 34.9246 14.0661 34.9246 14.2551C34.9246 14.4441 34.9997 14.6254 35.1334 14.7591C35.2671 14.8928 35.4483 14.9679 35.6374 14.9679H37.0629C37.2519 14.9679 37.4332 14.8928 37.5669 14.7591C37.7006 14.6254 37.7757 14.4441 37.7757 14.2551C37.7757 14.0661 37.7006 13.8848 37.5669 13.7511C37.4332 13.6174 37.2519 13.5423 37.0629 13.5423V12.7396C37.3207 12.6725 37.5678 12.5696 37.797 12.434L38.3663 13.0024C38.2974 13.068 38.2422 13.1466 38.2041 13.2338C38.166 13.321 38.1458 13.4149 38.1446 13.51C38.1434 13.6052 38.1612 13.6996 38.197 13.7877C38.2329 13.8758 38.286 13.9559 38.3533 14.0232C38.4206 14.0904 38.5006 14.1435 38.5887 14.1794C38.6769 14.2152 38.7713 14.2331 38.8664 14.2319C38.9615 14.2306 39.0554 14.2104 39.1426 14.1723C39.2298 14.1342 39.3085 14.0791 39.374 14.0101L39.8783 13.5067L40.3817 13.0024C40.4506 12.9369 40.5058 12.8582 40.5439 12.771C40.582 12.6839 40.6022 12.5899 40.6034 12.4948C40.6047 12.3997 40.5868 12.3053 40.551 12.2172C40.5151 12.129 40.462 12.049 40.3947 11.9817C40.3275 11.9144 40.2474 11.8613 40.1593 11.8255C40.0712 11.7896 39.9767 11.7718 39.8816 11.773C39.7865 11.7742 39.6926 11.7945 39.6054 11.8326C39.5182 11.8706 39.4395 11.9258 39.374 11.9948L38.8056 11.4255C38.9412 11.1962 39.0441 10.9491 39.1112 10.6913H39.9139C39.9139 10.8803 39.989 11.0616 40.1227 11.1953C40.2564 11.329 40.4376 11.4041 40.6267 11.4041C40.8157 11.4041 40.997 11.329 41.1307 11.1953C41.2643 11.0616 41.3394 10.8803 41.3394 10.6913V9.2658C41.3394 9.07676 41.2643 8.89547 41.1307 8.7618C40.997 8.62814 40.8157 8.55304 40.6267 8.55304ZM36.3501 11.4041C36.0682 11.4041 35.7926 11.3205 35.5582 11.1638C35.3237 11.0072 35.141 10.7846 35.0331 10.5241C34.9252 10.2636 34.897 9.97697 34.952 9.70045C35.007 9.42393 35.1428 9.16993 35.3421 8.97057C35.5415 8.7712 35.7955 8.63544 36.072 8.58043C36.3486 8.52543 36.6352 8.55366 36.8957 8.66155C37.1561 8.76945 37.3788 8.95216 37.5354 9.18658C37.692 9.42101 37.7757 9.69662 37.7757 9.97856C37.7752 10.3565 37.6248 10.7188 37.3576 10.986C37.0904 11.2532 36.7281 11.4036 36.3501 11.4041Z" fill="white"/>
<path d="M36.3502 10.6914C36.7439 10.6914 37.063 10.3723 37.063 9.97863C37.063 9.58498 36.7439 9.26587 36.3502 9.26587C35.9566 9.26587 35.6375 9.58498 35.6375 9.97863C35.6375 10.3723 35.9566 10.6914 36.3502 10.6914Z" fill="white"/>
<path d="M7.62695 22.3032C7.7656 22.0161 7.83769 21.7014 7.83784 21.3825C7.838 21.0637 7.76622 20.7489 7.62784 20.4616L8.21854 19.8709C8.34657 19.7362 8.41689 19.5567 8.41451 19.3709C8.41213 19.185 8.33724 19.0074 8.2058 18.876C8.07437 18.7446 7.89679 18.6697 7.71093 18.6673C7.52507 18.6649 7.34564 18.7352 7.21088 18.8633L6.62018 19.4531C6.39857 19.3475 6.16052 19.2806 5.91634 19.2553C5.52573 19.2151 5.13164 19.2839 4.77771 19.454L4.18701 18.8633C4.05225 18.7352 3.87282 18.6649 3.68696 18.6673C3.5011 18.6697 3.32352 18.7446 3.19209 18.876C3.06065 19.0074 2.98576 19.185 2.98338 19.3709C2.98101 19.5567 3.05132 19.7362 3.17935 19.8709L3.76916 20.4616C3.66355 20.6832 3.59666 20.9213 3.57137 21.1655C3.53123 21.5561 3.59999 21.9502 3.77005 22.3041L3.17935 22.8948C3.11038 22.9603 3.05522 23.039 3.01713 23.1262C2.97905 23.2133 2.9588 23.3073 2.95758 23.4024C2.95636 23.4975 2.9742 23.5919 3.01004 23.6801C3.04589 23.7682 3.09901 23.8482 3.16628 23.9155C3.23355 23.9828 3.31361 24.0359 3.40174 24.0718C3.48986 24.1076 3.58427 24.1254 3.6794 24.1242C3.77453 24.123 3.86845 24.1028 3.95563 24.0647C4.04281 24.0266 4.12148 23.9714 4.18701 23.9025L4.77771 23.3126C4.99932 23.4182 5.23737 23.4851 5.48155 23.5104C5.55461 23.5176 5.62767 23.5211 5.70073 23.5211C6.01881 23.5208 6.33274 23.4489 6.61929 23.3109L7.21088 23.9025C7.27641 23.9714 7.35508 24.0266 7.44226 24.0647C7.52944 24.1028 7.62336 24.123 7.71849 24.1242C7.81362 24.1254 7.90803 24.1076 7.99615 24.0718C8.08428 24.0359 8.16434 23.9828 8.23161 23.9155C8.29888 23.8482 8.35201 23.7682 8.38785 23.6801C8.42369 23.5919 8.44153 23.4975 8.44031 23.4024C8.4391 23.3073 8.41885 23.2133 8.38076 23.1262C8.34267 23.039 8.28751 22.9603 8.21854 22.8948L7.62695 22.3032ZM6.40814 21.455C6.39418 21.5922 6.34075 21.7223 6.25433 21.8297C6.1679 21.9371 6.05219 22.0171 5.92121 22.0601C5.79022 22.1031 5.64959 22.1071 5.51635 22.0718C5.3831 22.0365 5.26296 21.9632 5.17048 21.861C5.078 21.7588 5.01715 21.6319 4.9953 21.4958C4.97345 21.3597 4.99153 21.2202 5.04737 21.0942C5.1032 20.9681 5.19439 20.861 5.30988 20.7857C5.42537 20.7105 5.5602 20.6703 5.69805 20.6701C5.72245 20.67 5.74684 20.6711 5.77111 20.6737C5.95908 20.6931 6.13168 20.7862 6.25108 20.9327C6.37049 21.0792 6.42697 21.267 6.40814 21.455Z" fill="white"/>
</g>
<defs>
<clipPath id="clip0_2136_259">
<rect width="45.6164" height="45.6164" fill="white"/>
</clipPath>
</defs>
</svg>
