<svg width="20" height="20" viewBox="0 0 20 20" fill="none" xmlns="http://www.w3.org/2000/svg">
<g clip-path="url(#clip0_2363_66)">
<path d="M9.99982 5.80653C10.178 5.80653 10.3224 5.66211 10.3224 5.48395C10.3224 5.3058 10.178 5.16138 9.99982 5.16138C9.82167 5.16138 9.67725 5.3058 9.67725 5.48395C9.67725 5.66211 9.82167 5.80653 9.99982 5.80653Z" fill="url(#paint0_linear_2363_66)"/>
<path d="M7.41926 5.80653C7.59741 5.80653 7.74184 5.66211 7.74184 5.48395C7.74184 5.3058 7.59741 5.16138 7.41926 5.16138C7.2411 5.16138 7.09668 5.3058 7.09668 5.48395C7.09668 5.66211 7.2411 5.80653 7.41926 5.80653Z" fill="url(#paint1_linear_2363_66)"/>
<path d="M8.70975 8.38713C9.23072 8.38713 9.69908 8.09779 9.93201 7.63166L9.96588 7.56361L9.38877 7.2749L9.3549 7.3433C9.23201 7.58912 8.9849 7.74201 8.70975 7.74201C8.43459 7.74201 8.18748 7.58912 8.06459 7.3433L8.03072 7.27525L7.45361 7.56396L7.48748 7.63201C7.72037 8.09775 8.18877 8.38713 8.70975 8.38713Z" fill="url(#paint2_linear_2363_66)"/>
<path d="M8.38721 5.16138H9.03236V6.45169H8.38721V5.16138Z" fill="url(#paint3_linear_2363_66)"/>
<path d="M18.0645 12.408L16.1291 11.1177V10.3226H15.4839V11.1177L14.0229 12.0919C13.0584 11.0474 11.74 10.4235 10.3226 10.3406V9.93676C11.3471 9.65547 12.0952 8.79063 12.2329 7.74223H12.5807C13.47 7.74223 14.1936 7.01867 14.1936 6.12934C14.1936 5.60449 13.9377 5.14191 13.5484 4.84738V2.82031C13.5484 1.26516 12.2832 0 10.7281 0C10.4239 0 10.1236 0.0487109 9.83613 0.144844L9.33387 0.312266L8.1184 0.0690234C7.88934 0.0232422 7.65484 0 7.42227 0C5.46422 0 3.87098 1.59289 3.87098 3.55129V4.84711C3.48164 5.14195 3.22582 5.60453 3.22582 6.12906C3.22582 7.0184 3.94938 7.74195 4.83871 7.74195H5.18645C5.32449 8.79035 6.07227 9.6552 7.09676 9.93648V10.3375C5.91773 10.4068 4.79609 10.8526 3.89094 11.6152C3.88418 11.6149 3.8777 11.6129 3.87094 11.6129H1.29031C0.934492 11.6129 0.645156 11.9023 0.645156 12.2581V12.9032C0.645156 13.2591 0.934492 13.5484 1.29031 13.5484V14.2529C1.18902 14.2168 1.08129 14.1936 0.967734 14.1936C0.43418 14.1936 0 14.6277 0 15.1613V17.0968C0 17.6303 0.43418 18.0645 0.967734 18.0645C1.08129 18.0645 1.18902 18.0413 1.29031 18.0052V19.0323C1.29031 19.5658 1.72449 20 2.25805 20H12.9032V19.3548H9.03223V16.9736L11.6129 15.6832V17.9145L13.5484 19.2048V20H14.1935V19.2048L15.8064 18.1294L17.7419 19.4197L20 17.9142V15.6336L18.0645 14.3432V12.408ZM17.4193 14.3436L16.3835 15.0342C16.2219 14.9129 16.0235 14.8388 15.8064 14.8388C15.5893 14.8388 15.3909 14.9129 15.2293 15.0342L14.1935 14.3436V12.7536L15.8064 11.6784L17.4193 12.7536V14.3436H17.4193ZM15.8064 16.129C15.6287 16.129 15.4839 15.9845 15.4839 15.8064C15.4839 15.6284 15.6287 15.4839 15.8064 15.4839C15.9842 15.4839 16.129 15.6284 16.129 15.8064C16.129 15.9845 15.9842 16.129 15.8064 16.129ZM13.5484 12.5274V14.3432L11.6452 15.6123L11.3613 14.1936H12.258V11.5336C12.7368 11.7868 13.1726 12.1207 13.5484 12.5274ZM5.80645 11.248C6.01676 11.1735 6.23227 11.1132 6.4516 11.0684V11.6738C6.4516 12.3209 6.56191 12.9529 6.76871 13.5484H5.80645V11.248ZM7.31805 10.9723L8.18965 11.6261L7.16738 12.4781C7.1248 12.2139 7.09672 11.9461 7.09672 11.6739V10.9823C7.17031 10.9777 7.24387 10.9739 7.31805 10.9723ZM10.1 10.9732C10.1745 10.9748 10.2484 10.9807 10.3226 10.9855V11.6739C10.3226 11.9462 10.2945 12.2139 10.2519 12.4781L9.22965 11.6261L10.1 10.9732ZM8.85969 12.9032H8.55969L8.24035 12.4239L8.70969 12.0329L9.17902 12.4239L8.85969 12.9032ZM7.32805 13.1842L7.74191 12.8393L8.00547 13.2348L7.6132 13.8887C7.50195 13.661 7.40355 13.4271 7.32805 13.1842ZM6.71613 14.1936H7.04227C7.36742 14.8532 7.8216 15.4481 8.38711 15.9464V16.2523L6.49355 15.3055L6.71613 14.1936ZM8.70969 15.3771C8.43324 15.12 8.19164 14.8339 7.98195 14.5281L8.56969 13.5484H8.84969L9.43742 14.5281C9.22773 14.8339 8.98613 15.12 8.70969 15.3771ZM9.80613 13.8887L9.41387 13.2348L9.67742 12.8394L10.0913 13.1842C10.0158 13.4271 9.91742 13.661 9.80613 13.8887ZM10.9677 11.6739V11.069C11.1874 11.1136 11.4029 11.1713 11.6129 11.2455V13.5484H10.6506C10.8574 12.9532 10.9677 12.3213 10.9677 11.6739ZM12.5807 7.09676H12.2581V6.62418L13.0823 6.07484L12.7245 5.53809L12.2581 5.84906V5.16133H12.5807C13.1142 5.16133 13.5484 5.59551 13.5484 6.12906C13.5484 6.66258 13.1142 7.09676 12.5807 7.09676ZM7.42227 0.645156C7.61258 0.645156 7.80453 0.66418 7.99227 0.701602L9.37582 0.978047L10.0407 0.756445C10.2623 0.682578 10.4936 0.645156 10.7281 0.645156C11.9274 0.645156 12.9032 1.62098 12.9032 2.82031V4.43418C12.4958 4.08484 12.2581 3.57516 12.2581 3.03031V2.58066H11.6129V3.03066C11.6129 3.5752 11.7913 4.09227 12.1064 4.51613H11.9355C11.5332 4.51613 11.1932 4.22809 11.1271 3.83129L11.0674 3.47418C10.9813 2.95645 10.5377 2.58063 10.0129 2.58063C9.77352 2.58063 9.54543 2.65449 9.3548 2.79094C9.16414 2.65449 8.93609 2.58063 8.69676 2.58063C8.17191 2.58063 7.72836 2.95645 7.64223 3.47418C7.5532 4.00871 7.13676 4.41223 6.61769 4.49805C6.92414 4.07738 7.09672 3.56707 7.09672 3.03062V2.58063H6.45156V3.03062C6.45156 3.62063 6.17027 4.16805 5.69867 4.51609H5.48383H5.3132C5.62805 4.09223 5.80645 3.57512 5.80645 3.03062V2.58063H5.16129V3.03062C5.16129 3.57547 4.92355 4.08516 4.51613 4.43449V3.55129C4.51613 1.94871 5.82 0.645156 7.42227 0.645156ZM3.87098 6.12902C3.87098 5.59547 4.30516 5.16129 4.83871 5.16129H5.16129V5.84902L4.69516 5.53805L4.33742 6.0748L5.16129 6.62414V7.09672H4.83871C4.30516 7.09676 3.87098 6.66258 3.87098 6.12902ZM5.80645 7.39258V5.16129H6.41227C7.34098 5.16129 8.12613 4.49613 8.27902 3.58C8.3132 3.37484 8.48871 3.22582 8.69676 3.22582C8.8248 3.22582 8.95063 3.27777 9.04129 3.3684L9.35484 3.68164L9.66871 3.3684C9.75902 3.27773 9.88484 3.22582 10.0129 3.22582C10.2209 3.22582 10.3968 3.37484 10.4309 3.58L10.4906 3.93711C10.5906 4.53711 11.0413 4.9984 11.6129 5.12613V7.39258C11.6129 8.37129 10.9122 9.1984 9.94676 9.35934L9.67738 9.40418V10.4839L8.70965 11.2097L7.74191 10.4839V9.40418L7.47258 9.35902C6.50711 9.1984 5.80645 8.37129 5.80645 7.39258ZM1.29031 12.258H3.87098L3.87129 12.9032H1.29031V12.258ZM3.5484 15.4839C3.37066 15.4839 3.22582 15.3393 3.22582 15.1613C3.22582 14.9832 3.37066 14.8387 3.5484 14.8387H4.19355C4.37129 14.8387 4.51613 14.9832 4.51613 15.1613C4.51613 15.3393 4.37129 15.4839 4.19355 15.4839H3.5484ZM0.967734 17.4193C0.79 17.4193 0.645156 17.2748 0.645156 17.0968V15.1613C0.645156 14.9832 0.79 14.8387 0.967734 14.8387C1.14547 14.8387 1.29031 14.9832 1.29031 15.1613V17.0968C1.29031 17.2748 1.14547 17.4193 0.967734 17.4193ZM2.25805 19.3548C2.08031 19.3548 1.93547 19.2103 1.93547 19.0323V13.5484H3.22578V14.2529C2.85125 14.3865 2.58063 14.7413 2.58063 15.1613C2.58063 15.5813 2.85129 15.9362 3.22578 16.0697V19.0323C3.22578 19.2104 3.08094 19.3549 2.9032 19.3549L2.25805 19.3548ZM3.8116 19.3548C3.84773 19.2536 3.87094 19.1458 3.87094 19.0323V16.129H4.19352C4.72707 16.129 5.16125 15.6948 5.16125 15.1613C5.16125 14.6277 4.72707 14.1936 4.19352 14.1936H3.87094V13.5484C4.22676 13.5484 4.51609 13.2591 4.51609 12.9032V12.2581C4.51609 12.161 4.49285 12.07 4.45449 11.9871C4.67738 11.8139 4.91383 11.662 5.16125 11.5313V14.1936H6.05801L5.76414 15.6623L8.38703 16.9736V19.3548H3.8116ZM9.03227 16.2523V15.9464C9.59773 15.448 10.052 14.8532 10.3771 14.1936H10.7032L10.9255 15.3055L9.03227 16.2523ZM12.258 15.979L13.8709 14.9039L14.8713 15.5706C14.8519 15.6464 14.8387 15.7245 14.8387 15.8064C14.8387 16.2264 15.1093 16.5813 15.4838 16.7148V17.5694L13.8709 18.6445L12.258 17.5694V15.979ZM19.3548 17.5693L17.742 18.6445L16.1291 17.5693V16.7148C16.5036 16.5813 16.7742 16.2264 16.7742 15.8064C16.7742 15.7245 16.761 15.6464 16.7416 15.5706L17.742 14.9039L19.3548 15.979V17.5693Z" fill="url(#paint4_linear_2363_66)"/>
<path d="M19.9998 0H19.3546C19.3546 0.226445 19.3411 0.439023 19.3214 0.645156H14.8718C14.8521 0.439023 14.8385 0.226445 14.8385 0H14.1934C14.1934 2.55773 15.4011 3.91289 16.6411 5.16129C15.4011 6.40969 14.1934 7.76484 14.1934 10.3226H14.8385C14.8385 10.0961 14.8521 9.88355 14.8718 9.67742H19.3211C19.3411 9.88355 19.3547 10.0961 19.3547 10.3226H19.9998C19.9998 7.76484 18.7921 6.40969 17.5521 5.16129C18.7921 3.91289 19.9998 2.55773 19.9998 0ZM15.4227 2.58066H18.7701C18.6537 2.80777 18.5234 3.02164 18.3817 3.22582H15.8107C15.6698 3.0216 15.5391 2.80773 15.4227 2.58066ZM17.8785 3.87098C17.6314 4.15742 17.3675 4.43164 17.0966 4.70453C16.8256 4.43164 16.5617 4.15742 16.3146 3.87098H17.8785ZM19.2262 1.29031C19.1785 1.51707 19.1182 1.7316 19.0469 1.93547H15.1462C15.075 1.7316 15.0146 1.51707 14.9669 1.29031H19.2262ZM18.7705 7.74195H15.4227C15.5392 7.51484 15.6695 7.30098 15.8111 7.0968H18.3821C18.5234 7.30098 18.654 7.51484 18.7705 7.74195ZM16.3146 6.4516C16.5618 6.16516 16.8256 5.89094 17.0966 5.61805C17.3676 5.89094 17.6314 6.16516 17.8786 6.4516H16.3146ZM14.9669 9.03227C15.0146 8.80551 15.075 8.59098 15.1462 8.38711H19.0466C19.1179 8.59098 19.1782 8.80551 19.2259 9.03227H14.9669Z" fill="url(#paint5_linear_2363_66)"/>
</g>
<defs>
<linearGradient id="paint0_linear_2363_66" x1="9.99982" y1="5.16138" x2="9.99982" y2="5.80653" gradientUnits="userSpaceOnUse">
<stop stop-color="#005C96"/>
<stop offset="1" stop-color="#15AEE5"/>
</linearGradient>
<linearGradient id="paint1_linear_2363_66" x1="7.41926" y1="5.16138" x2="7.41926" y2="5.80653" gradientUnits="userSpaceOnUse">
<stop stop-color="#005C96"/>
<stop offset="1" stop-color="#15AEE5"/>
</linearGradient>
<linearGradient id="paint2_linear_2363_66" x1="8.70975" y1="7.2749" x2="8.70975" y2="8.38713" gradientUnits="userSpaceOnUse">
<stop stop-color="#005C96"/>
<stop offset="1" stop-color="#15AEE5"/>
</linearGradient>
<linearGradient id="paint3_linear_2363_66" x1="8.70978" y1="5.16138" x2="8.70978" y2="6.45169" gradientUnits="userSpaceOnUse">
<stop stop-color="#005C96"/>
<stop offset="1" stop-color="#15AEE5"/>
</linearGradient>
<linearGradient id="paint4_linear_2363_66" x1="10" y1="0" x2="10" y2="20" gradientUnits="userSpaceOnUse">
<stop stop-color="#005C96"/>
<stop offset="1" stop-color="#15AEE5"/>
</linearGradient>
<linearGradient id="paint5_linear_2363_66" x1="17.0966" y1="0" x2="17.0966" y2="10.3226" gradientUnits="userSpaceOnUse">
<stop stop-color="#005C96"/>
<stop offset="1" stop-color="#15AEE5"/>
</linearGradient>
<clipPath id="clip0_2363_66">
<rect width="20" height="20" fill="white"/>
</clipPath>
</defs>
</svg>
