<svg width="46" height="46" viewBox="0 0 46 46" fill="none" xmlns="http://www.w3.org/2000/svg">
<path d="M10.0553 33.0234C13.3567 36.3247 17.535 39.3343 22.4745 41.9685C22.5777 42.0236 22.6929 42.0524 22.8099 42.0524C22.9269 42.0524 23.042 42.0236 23.1453 41.9685C28.0847 39.3342 32.263 36.3246 35.5643 33.0234C38.2198 30.368 40.3181 27.5178 41.801 24.5524C44.281 19.592 44.2056 15.9969 44.1926 15.665C44.1884 13.1387 43.3455 10.6853 41.7964 8.68967C40.2472 6.69406 38.0794 5.2692 35.633 4.63865C33.1867 4.0081 30.6002 4.20753 28.2794 5.20566C25.9586 6.20379 24.0348 7.94413 22.8099 10.1536C21.5852 7.94378 19.6615 6.20307 17.3406 5.20469C15.0197 4.20631 12.433 4.00677 9.98646 4.63737C7.5399 5.26797 5.37195 6.69302 3.82283 8.6889C2.2737 10.6848 1.43109 13.1385 1.42721 15.665C1.41429 15.9969 1.33883 19.592 3.81895 24.5524C5.30167 27.5178 7.39984 30.368 10.0553 33.0234ZM2.85174 15.7162C2.85237 15.7044 2.85263 15.6925 2.85263 15.6805C2.85315 13.3506 3.66881 11.0943 5.15824 9.30268C6.64767 7.51103 8.717 6.29693 11.0076 5.87081C13.2982 5.44469 15.6657 5.8334 17.6998 6.96958C19.7339 8.10575 21.3064 9.91778 22.1447 12.0916C22.1965 12.226 22.2878 12.3415 22.4065 12.423C22.5252 12.5045 22.6658 12.5481 22.8098 12.5481C22.9538 12.5481 23.0944 12.5045 23.2132 12.423C23.3319 12.3415 23.4231 12.226 23.4749 12.0916C24.3132 9.91768 25.8857 8.10554 27.9198 6.96929C29.9539 5.83304 32.3215 5.44429 34.6121 5.87042C36.9028 6.29655 38.9722 7.51071 40.4616 9.30244C41.951 11.0942 42.7666 13.3506 42.767 15.6805C42.767 15.6924 42.767 15.7043 42.7679 15.7162C42.7697 15.7499 42.9092 19.1482 40.5258 23.9149C39.1117 26.7431 37.1034 29.4685 34.5565 32.0155C31.4293 35.1427 27.4787 38.0064 22.81 40.5309C18.1692 38.0215 14.2376 35.1763 11.1196 32.0716C8.57491 29.5371 6.56351 26.8247 5.14138 24.0094C3.20741 20.1805 2.79811 16.9091 2.85174 15.7162Z" fill="white"/>
<path d="M37.2728 12.9818C35.7346 11.5519 33.4712 10.9673 31.2172 11.418C29.5085 11.7598 28.2484 12.8681 27.5733 14.623C27.3357 15.2528 27.181 15.9109 27.113 16.5806C26.483 16.8262 25.964 17.2928 25.6529 17.8931C25.2941 18.5948 25.2541 19.3874 25.3254 20.0648L22.7032 18.7536L22.4551 17.76C22.6848 17.3412 22.8048 16.8711 22.8039 16.3935C22.8031 16.0041 22.7229 15.6189 22.5682 15.2616C22.4135 14.9043 22.1875 14.5823 21.904 14.3153C21.6206 14.0472 21.2847 13.8406 20.9176 13.7085C20.5504 13.5765 20.1599 13.5219 19.7706 13.5481C19.072 13.5986 18.4157 13.9022 17.9249 14.4019C17.434 14.9016 17.1423 15.5632 17.1044 16.2627C17.0819 16.7262 17.1735 17.1881 17.3711 17.608C17.5687 18.0278 17.8662 18.3928 18.2377 18.6709L18.5339 20.7696C18.5555 20.9227 18.6264 21.0647 18.7357 21.174L19.4149 21.8532C18.9436 22.0974 18.5061 22.4019 18.1134 22.759C17.5254 21.4603 16.4276 20.5723 14.8793 20.1596C14.1392 19.9702 13.3757 19.8887 12.6123 19.9179L12.522 19.6469C12.3391 19.0976 11.9505 18.6406 11.4378 18.3717C10.9251 18.1029 10.3281 18.0431 9.77232 18.2049C9.21649 18.3668 8.74498 18.7377 8.45678 19.2398C8.16858 19.7418 8.0861 20.3361 8.22665 20.8976L9.05523 24.2128C9.15618 24.6169 9.37302 24.9828 9.6791 25.2653C9.98517 25.5479 10.3671 25.7349 10.7781 25.8033L13.4381 26.2466C13.0574 29.704 15.0795 31.7733 15.1714 31.8654C16.4503 33.1443 18.4978 33.8227 20.8209 33.8227C22.0261 33.8167 23.225 33.6484 24.3852 33.3222C28.0406 32.3099 30.6385 30.0427 31.3346 27.2577C31.9432 24.8233 33.356 24.3775 34.9918 23.8611C36.7648 23.3017 38.7739 22.6672 39.1907 19.3329C39.6146 15.9509 38.3816 14.0123 37.2728 12.9818ZM29.9527 26.912C29.3825 29.1921 27.1594 31.0749 24.0056 31.9485C20.8517 32.8221 17.7066 32.3835 16.1831 30.8599C15.8241 30.4553 15.533 29.9953 15.3211 29.4977C14.8132 28.3501 14.6885 27.1058 14.9499 25.7991C14.9687 25.7054 14.9684 25.6089 14.9491 25.5153C14.9298 25.4218 14.8919 25.333 14.8376 25.2544C14.7833 25.1757 14.7138 25.1088 14.6331 25.0576C14.5525 25.0064 14.4624 24.9719 14.3681 24.9562L11.0134 24.3971C10.8765 24.3743 10.7491 24.312 10.6471 24.2178C10.5451 24.1237 10.4728 24.0017 10.4392 23.867L9.61065 20.5519C9.55964 20.3479 9.58963 20.1321 9.69431 19.9498C9.79899 19.7675 9.97022 19.6328 10.1721 19.574C10.3739 19.5152 10.5907 19.5369 10.7769 19.6345C10.9631 19.7321 11.1043 19.898 11.1708 20.0975L11.4367 20.8953C11.4896 21.0533 11.596 21.1878 11.7376 21.2755C11.8791 21.3632 12.0469 21.3987 12.2119 21.3757C12.9951 21.2923 13.7869 21.3502 14.5496 21.5468C16.01 21.9477 16.8447 22.8501 17.102 24.3017V27.0848C17.102 27.2739 17.1771 27.4552 17.3107 27.5888C17.4444 27.7225 17.6257 27.7976 17.8147 27.7976C18.0038 27.7976 18.1851 27.7225 18.3187 27.5888C18.4524 27.4552 18.5275 27.2739 18.5275 27.0848V24.4305C18.7263 24.1323 19.323 23.3856 20.5733 22.8878C21.2215 23.3107 22.7691 24.3004 23.9108 24.8713C23.9946 24.914 24.086 24.9397 24.1798 24.9469C24.2736 24.9542 24.3679 24.9427 24.4572 24.9134C24.5466 24.884 24.6293 24.8372 24.7004 24.7757C24.7716 24.7142 24.8299 24.6392 24.872 24.5551C24.9141 24.4709 24.9391 24.3793 24.9456 24.2855C24.9521 24.1916 24.9399 24.0974 24.9098 24.0083C24.8797 23.9192 24.8323 23.8369 24.7703 23.7662C24.7082 23.6955 24.6328 23.6377 24.5483 23.5963C23.3074 22.9759 21.4677 21.771 21.1191 21.5408L19.9127 20.3345L19.6048 18.1533C19.5896 18.045 19.5496 17.9418 19.488 17.8515C19.4265 17.7611 19.3449 17.6862 19.2498 17.6324C19.0203 17.5032 18.8313 17.3126 18.704 17.082C18.5767 16.8514 18.5162 16.5899 18.5291 16.3268C18.5479 15.9775 18.6935 15.6471 18.9386 15.3975C19.1836 15.1479 19.5113 14.9962 19.8602 14.9709C20.1296 14.9532 20.3984 15.0125 20.6355 15.1417C20.8725 15.2709 21.0679 15.4649 21.199 15.7009C21.3301 15.9369 21.3914 16.2053 21.3758 16.4748C21.3603 16.7443 21.2684 17.0039 21.1111 17.2232C21.0507 17.3073 21.0094 17.4035 20.9899 17.5051C20.9705 17.6067 20.9734 17.7114 20.9984 17.8118L21.3994 19.4172C21.4243 19.5169 21.4705 19.6102 21.5349 19.6904C21.5992 19.7706 21.6802 19.836 21.7721 19.882L26.0487 22.0202C26.0576 22.0246 26.9154 22.4746 26.404 24.0084C26.3744 24.0972 26.3626 24.191 26.3692 24.2843C26.3758 24.3777 26.4008 24.4689 26.4427 24.5526C26.4845 24.6363 26.5425 24.711 26.6132 24.7723C26.6839 24.8336 26.766 24.8804 26.8548 24.91C26.9436 24.9396 27.0374 24.9514 27.1308 24.9448C27.2241 24.9382 27.3153 24.9132 27.399 24.8714C27.4827 24.8295 27.5574 24.7715 27.6187 24.7008C27.68 24.6301 27.7269 24.548 27.7565 24.4592C28.3853 22.5727 27.6176 21.4055 26.9575 20.9142C26.7794 20.356 26.5537 19.2584 26.9235 18.5391C27.1145 18.1678 27.4555 17.9253 27.9659 17.7977C28.1197 17.7589 28.2562 17.6701 28.3539 17.5452C28.4517 17.4204 28.5051 17.2666 28.5059 17.108C28.5065 16.9927 28.5383 14.8948 29.8607 13.647C30.0607 16.094 30.926 17.2005 31.6743 17.6992C32.3631 18.1585 32.7293 18.6232 32.7054 19.0077C32.6837 19.3563 32.3179 19.749 31.751 20.0323C31.2909 20.2622 30.7898 20.8192 31.0148 22.1662C31.1357 22.7953 31.3206 23.4105 31.5668 24.002C30.8791 24.6331 30.2958 25.5395 29.9527 26.912ZM37.7773 19.1561C37.4738 21.5833 36.2532 21.9686 34.5638 22.5018C33.9509 22.6786 33.3534 22.9049 32.7771 23.1785C32.2825 21.8339 32.3859 21.3773 32.4146 21.2944C33.4497 20.7687 34.0738 19.9688 34.1281 19.0962C34.1683 18.4505 33.9124 17.4781 32.465 16.5131C31.7291 16.0231 31.2939 14.7098 31.2473 12.8752C31.3282 12.8532 31.411 12.833 31.4967 12.8159C33.2748 12.4602 35.1166 12.9239 36.3023 14.026C37.5427 15.1788 38.0527 16.9528 37.7773 19.1561Z" fill="white"/>
</svg>
