<svg width="25" height="25" viewBox="0 0 25 25" fill="none" xmlns="http://www.w3.org/2000/svg">
<circle cx="12.5" cy="12.5" r="12.5" fill="#F5F5F5"/>
<g clip-path="url(#clip0_1922_539)">
<path d="M20.5884 7.7832L15.8438 12.5278L20.4713 17.1588C20.6114 16.9179 20.6976 16.6418 20.6976 16.3436V8.35645C20.6976 8.15403 20.656 7.96221 20.5884 7.7832Z" fill="#1160A5"/>
<path d="M19.065 6.72266H5.63242C5.36082 6.72266 5.10839 6.79559 4.88281 6.91337L12.0147 14.0452C12.2216 14.2521 12.5811 14.2521 12.7844 14.0452L19.8827 6.95032C19.6413 6.80932 19.3643 6.72266 19.065 6.72266Z" fill="#1160A5"/>
<path d="M4.13702 7.70557C4.04981 7.90525 4 8.12483 4 8.35634V16.3435C4 16.6369 4.08392 16.9086 4.21994 17.1469L8.89747 12.466L4.13702 7.70557Z" fill="#1160A5"/>
<path d="M15.0757 13.301L13.5619 14.8185C12.9259 15.4472 11.8956 15.4575 11.2493 14.8185L9.67366 13.2393L5.04688 17.8627C5.23035 17.9342 5.42817 17.9771 5.63663 17.9771H19.0692C19.2726 17.9771 19.4654 17.9353 19.6452 17.867L15.0757 13.301Z" fill="#1160A5"/>
</g>
<defs>
<clipPath id="clip0_1922_539">
<rect width="16.7" height="16.7" fill="white" transform="translate(4 4)"/>
</clipPath>
</defs>
</svg>
