<svg width="30" height="30" viewBox="0 0 30 30" fill="none" xmlns="http://www.w3.org/2000/svg">
<g clip-path="url(#clip0_1992_291)">
<path d="M25.9453 2.06684L24.007 0.127617C23.8359 -0.0425391 23.5345 -0.0425391 23.3634 0.127617L21.1725 2.31949C20.962 2.18027 20.7173 2.10715 20.453 2.10434C20.107 2.10527 19.7817 2.24168 19.5412 2.4859L9.80016 12.2279C9.55406 12.4712 9.41766 12.7951 9.41672 13.1411C9.41578 13.3815 9.48375 13.6098 9.60422 13.8104L7.80609 15.6086C7.72078 15.6939 7.6725 15.8092 7.6725 15.9301C7.6725 16.0506 7.72125 16.1664 7.80609 16.2517L9.82031 18.265C9.90891 18.354 10.0256 18.3986 10.1419 18.3986C10.2581 18.3986 10.3744 18.354 10.4634 18.265L12.2606 16.4682C12.4603 16.5892 12.6881 16.6576 12.9281 16.6576H12.9328C13.2787 16.6562 13.6031 16.5198 13.8436 16.2761L18.0145 12.1056C18.5152 12.7436 19.2919 13.1565 20.1642 13.1565C20.5434 13.1565 20.9048 13.0787 21.2334 12.9381C22.2248 14.2375 22.7733 15.8336 22.7733 17.4789C22.7733 21.617 19.4058 24.9845 15.2677 24.9845C13.7508 24.9845 12.2986 24.5275 11.0681 23.6912H12.8086C13.0603 23.6912 13.2638 23.4873 13.2638 23.2365V21.0873C13.2638 20.8361 13.0603 20.6326 12.8086 20.6326H4.36922C4.11844 20.6326 3.91406 20.8361 3.91406 21.0873V23.2365C3.91406 23.4873 4.11844 23.6912 4.36922 23.6912H7.05469C8.15062 25.1382 9.59625 26.2553 11.2284 26.9532L9.53578 28.359C9.23203 28.6117 9.12094 29.0153 9.25547 29.3879C9.39 29.7592 9.73266 30.0001 10.1287 30.0001H20.4047C20.8003 30.0001 21.1425 29.7596 21.277 29.3875C21.4116 29.0153 21.3019 28.6117 20.9977 28.3586L19.312 26.9575C22.9908 25.382 25.575 21.7262 25.575 17.4779C25.575 14.9026 24.6183 12.4571 22.8881 10.5592C22.8909 10.5137 22.8956 10.4696 22.8956 10.4237C22.8956 9.55137 22.4827 8.77465 21.8447 8.27402L23.5852 6.53355C23.8312 6.29074 23.9677 5.96637 23.9686 5.61996C23.9695 5.36074 23.8945 5.11324 23.7544 4.90137L25.9453 2.70949C26.123 2.53184 26.123 2.24449 25.9453 2.06684ZM10.1419 17.3003L8.77031 15.9297L10.2169 14.484L11.5875 15.8547L10.1419 17.3003ZM4.82437 21.5411H12.3544V22.7814H4.82437V21.5411ZM20.4047 29.0907L10.117 29.0579L12.2128 27.3175C13.1925 27.6231 14.2214 27.7853 15.2681 27.7853C16.3322 27.7853 17.3592 27.6231 18.3248 27.3231L20.4047 29.0907ZM24.6666 17.4779C24.6666 22.66 20.4506 26.8759 15.2677 26.8759C12.5695 26.8759 10.0017 25.6979 8.22703 23.6903H9.60656C11.1558 25.1078 13.1559 25.8925 15.2672 25.8925C19.9069 25.8925 23.6817 22.1171 23.6817 17.4779C23.6817 15.6568 23.0831 13.8896 21.997 12.4426C22.2497 12.2129 22.4583 11.9378 22.6116 11.6289C23.9395 13.2864 24.6666 15.3329 24.6666 17.4779ZM20.1637 12.2467C19.1583 12.2467 18.3398 11.4287 18.3398 10.4237C18.3398 9.41824 19.1583 8.60074 20.1637 8.60074C21.1683 8.60074 21.9867 9.41824 21.9867 10.4237C21.9867 11.4287 21.1683 12.2467 20.1637 12.2467ZM22.9444 5.88855L21.007 7.82684C20.7408 7.73965 20.4577 7.69184 20.1637 7.69184C18.6567 7.69184 17.4309 8.91715 17.4309 10.4242C17.4309 10.7181 17.4797 11.0007 17.5655 11.2675L13.1986 15.6353C13.1264 15.7075 13.0312 15.7478 12.9286 15.7478C12.8353 15.7342 12.7261 15.7075 12.6511 15.6329L10.4409 13.4228C10.3659 13.3482 10.3247 13.2493 10.3256 13.1448C10.3256 13.0421 10.3659 12.9465 10.4409 12.8729L20.1867 3.12668C20.258 3.05402 20.3541 3.01418 20.4558 3.01371C20.5556 3.00527 20.6592 3.05449 20.7342 3.12902L22.9444 5.33918C23.0184 5.41418 23.0597 5.51215 23.0588 5.61715C23.0588 5.71887 23.0184 5.81496 22.9444 5.88855ZM23.1305 4.23949L21.8348 2.9434L23.6859 1.09184L24.9816 2.3884L23.1305 4.23949Z" fill="#15AEE5"/>
<path d="M20.1645 9.11108C19.4403 9.11108 18.8516 9.69983 18.8516 10.4241C18.8516 11.1473 19.4403 11.7361 20.1645 11.7361C20.8878 11.7361 21.4766 11.1473 21.4766 10.4241C21.4766 9.69937 20.8878 9.11108 20.1645 9.11108ZM20.1645 10.8267C19.9419 10.8267 19.7609 10.6458 19.7609 10.4241C19.7609 10.2014 19.9423 10.0209 20.1645 10.0209C20.3867 10.0209 20.5672 10.2019 20.5672 10.4241C20.5677 10.6458 20.3872 10.8267 20.1645 10.8267Z" fill="#15AEE5"/>
</g>
<defs>
<clipPath id="clip0_1992_291">
<rect width="30" height="30" fill="white"/>
</clipPath>
</defs>
</svg>
