<svg width="50" height="50" viewBox="0 0 50 50" fill="none" xmlns="http://www.w3.org/2000/svg">
<circle cx="25" cy="25" r="25" fill="#E8F7FF"/>
<g clip-path="url(#clip0_1992_294)">
<path d="M35.9453 12.0668L34.007 10.1276C33.8359 9.95746 33.5345 9.95746 33.3634 10.1276L31.1725 12.3195C30.962 12.1803 30.7173 12.1071 30.453 12.1043C30.107 12.1053 29.7817 12.2417 29.5412 12.4859L19.8002 22.2279C19.5541 22.4712 19.4177 22.7951 19.4167 23.1411C19.4158 23.3815 19.4837 23.6098 19.6042 23.8104L17.8061 25.6086C17.7208 25.6939 17.6725 25.8092 17.6725 25.9301C17.6725 26.0506 17.7212 26.1664 17.8061 26.2517L19.8203 28.265C19.9089 28.354 20.0256 28.3986 20.1419 28.3986C20.2581 28.3986 20.3744 28.354 20.4634 28.265L22.2606 26.4682C22.4603 26.5892 22.6881 26.6576 22.9281 26.6576H22.9328C23.2787 26.6562 23.6031 26.5198 23.8436 26.2761L28.0145 22.1056C28.5152 22.7436 29.2919 23.1565 30.1642 23.1565C30.5434 23.1565 30.9048 23.0787 31.2334 22.9381C32.2248 24.2375 32.7733 25.8336 32.7733 27.4789C32.7733 31.617 29.4058 34.9845 25.2677 34.9845C23.7508 34.9845 22.2986 34.5275 21.0681 33.6912H22.8086C23.0603 33.6912 23.2638 33.4873 23.2638 33.2365V31.0873C23.2638 30.8361 23.0603 30.6326 22.8086 30.6326H14.3692C14.1184 30.6326 13.9141 30.8361 13.9141 31.0873V33.2365C13.9141 33.4873 14.1184 33.6912 14.3692 33.6912H17.0547C18.1506 35.1382 19.5963 36.2553 21.2284 36.9532L19.5358 38.359C19.232 38.6117 19.1209 39.0153 19.2555 39.3879C19.39 39.7592 19.7327 40.0001 20.1287 40.0001H30.4047C30.8003 40.0001 31.1425 39.7596 31.277 39.3875C31.4116 39.0153 31.3019 38.6117 30.9977 38.3586L29.312 36.9575C32.9908 35.382 35.575 31.7262 35.575 27.4779C35.575 24.9026 34.6183 22.4571 32.8881 20.5592C32.8909 20.5137 32.8956 20.4696 32.8956 20.4237C32.8956 19.5514 32.4827 18.7746 31.8447 18.274L33.5852 16.5336C33.8312 16.2907 33.9677 15.9664 33.9686 15.62C33.9695 15.3607 33.8945 15.1132 33.7544 14.9014L35.9453 12.7095C36.123 12.5318 36.123 12.2445 35.9453 12.0668ZM20.1419 27.3003L18.7703 25.9297L20.2169 24.484L21.5875 25.8547L20.1419 27.3003ZM14.8244 31.5411H22.3544V32.7814H14.8244V31.5411ZM30.4047 39.0907L20.117 39.0579L22.2128 37.3175C23.1925 37.6231 24.2214 37.7853 25.2681 37.7853C26.3322 37.7853 27.3592 37.6231 28.3248 37.3231L30.4047 39.0907ZM34.6666 27.4779C34.6666 32.66 30.4506 36.8759 25.2677 36.8759C22.5695 36.8759 20.0017 35.6979 18.227 33.6903H19.6066C21.1558 35.1078 23.1559 35.8925 25.2672 35.8925C29.9069 35.8925 33.6817 32.1171 33.6817 27.4779C33.6817 25.6568 33.0831 23.8896 31.997 22.4426C32.2497 22.2129 32.4583 21.9378 32.6116 21.6289C33.9395 23.2864 34.6666 25.3329 34.6666 27.4779ZM30.1637 22.2467C29.1583 22.2467 28.3398 21.4287 28.3398 20.4237C28.3398 19.4182 29.1583 18.6007 30.1637 18.6007C31.1683 18.6007 31.9867 19.4182 31.9867 20.4237C31.9867 21.4287 31.1683 22.2467 30.1637 22.2467ZM32.9444 15.8886L31.007 17.8268C30.7408 17.7396 30.4577 17.6918 30.1637 17.6918C28.6567 17.6918 27.4309 18.9171 27.4309 20.4242C27.4309 20.7181 27.4797 21.0007 27.5655 21.2675L23.1986 25.6353C23.1264 25.7075 23.0312 25.7478 22.9286 25.7478C22.8353 25.7342 22.7261 25.7075 22.6511 25.6329L20.4409 23.4228C20.3659 23.3482 20.3247 23.2493 20.3256 23.1448C20.3256 23.0421 20.3659 22.9465 20.4409 22.8729L30.1867 13.1267C30.258 13.054 30.3541 13.0142 30.4558 13.0137C30.5556 13.0053 30.6592 13.0545 30.7342 13.129L32.9444 15.3392C33.0184 15.4142 33.0597 15.5121 33.0588 15.6171C33.0588 15.7189 33.0184 15.815 32.9444 15.8886ZM33.1305 14.2395L31.8348 12.9434L33.6859 11.0918L34.9816 12.3884L33.1305 14.2395Z" fill="#15AEE5"/>
<path d="M30.1645 19.1111C29.4403 19.1111 28.8516 19.6998 28.8516 20.4241C28.8516 21.1473 29.4403 21.7361 30.1645 21.7361C30.8878 21.7361 31.4766 21.1473 31.4766 20.4241C31.4766 19.6994 30.8878 19.1111 30.1645 19.1111ZM30.1645 20.8267C29.9419 20.8267 29.7609 20.6458 29.7609 20.4241C29.7609 20.2014 29.9423 20.0209 30.1645 20.0209C30.3867 20.0209 30.5672 20.2019 30.5672 20.4241C30.5677 20.6458 30.3872 20.8267 30.1645 20.8267Z" fill="#15AEE5"/>
</g>
<defs>
<clipPath id="clip0_1992_294">
<rect width="30" height="30" fill="white" transform="translate(10 10)"/>
</clipPath>
</defs>
</svg>
