<svg width="45" height="45" viewBox="0 0 45 45" fill="none" xmlns="http://www.w3.org/2000/svg">
<path d="M13.5423 13.5425C13.936 13.5425 14.2551 13.2233 14.2551 12.8297C14.2551 12.4361 13.936 12.1169 13.5423 12.1169C13.1487 12.1169 12.8296 12.4361 12.8296 12.8297C12.8296 13.2233 13.1487 13.5425 13.5423 13.5425Z" fill="white"/>
<path d="M20.67 13.5425C21.0637 13.5425 21.3828 13.2233 21.3828 12.8297C21.3828 12.4361 21.0637 12.1169 20.67 12.1169C20.2764 12.1169 19.9573 12.4361 19.9573 12.8297C19.9573 13.2233 20.2764 13.5425 20.67 13.5425Z" fill="white"/>
<path d="M14.9679 19.9573H19.2444C19.4335 19.9573 19.6148 19.8822 19.7484 19.7485C19.8821 19.6148 19.9572 19.4335 19.9572 19.2445C19.9572 19.0555 19.8821 18.8742 19.7484 18.7405C19.6148 18.6068 19.4335 18.5317 19.2444 18.5317H14.9679C14.7788 18.5317 14.5976 18.6068 14.4639 18.7405C14.3302 18.8742 14.2551 19.0555 14.2551 19.2445C14.2551 19.4335 14.3302 19.6148 14.4639 19.7485C14.5976 19.8822 14.7788 19.9573 14.9679 19.9573Z" fill="white"/>
<path d="M44.1906 30.6485C44.1912 28.1561 43.375 25.7321 41.867 23.7476C40.3591 21.7631 38.2423 20.3275 35.8408 19.6603C33.4393 18.9932 30.8854 19.1314 28.5699 20.0537C26.2544 20.9761 24.3049 22.6318 23.0199 24.7674L21.3823 24.3816V23.3125C22.4112 23.0043 23.3134 22.3728 23.9553 21.5117C24.5971 20.6506 24.9446 19.6057 24.9461 18.5317V17.1062H25.6589C26.2258 17.1054 26.7692 16.8799 27.17 16.479C27.5709 16.0782 27.7964 15.5348 27.7971 14.9679V12.1169C27.7973 11.8162 27.7338 11.519 27.611 11.2446C27.4882 10.9702 27.3087 10.7249 27.0844 10.5247V7.84033C27.082 5.76167 26.2552 3.76882 24.7854 2.29898C23.3156 0.829147 21.3227 0.0023581 19.2441 0H14.9675C12.8889 0.0023581 10.896 0.829147 9.42618 2.29898C7.95635 3.76882 7.12956 5.76167 7.1272 7.84033V10.5247C6.90289 10.7249 6.72343 10.9702 6.6006 11.2446C6.47776 11.519 6.41432 11.8162 6.41444 12.1169V14.9679C6.4152 15.5348 6.64072 16.0782 7.04156 16.479C7.4424 16.8799 7.98584 17.1054 8.55271 17.1062H9.26547V18.5317C9.26678 19.6057 9.61414 20.6508 10.2561 21.5119C10.898 22.3731 11.8003 23.0045 12.8293 23.3125V24.3816L5.65803 26.0691C4.25229 26.3953 2.99836 27.1878 2.10036 28.3174C1.20236 29.4471 0.713156 30.8475 0.71239 32.2906L0.0014149 43.4327C-0.00471534 43.5299 0.00911824 43.6273 0.0420634 43.719C0.0750085 43.8106 0.126367 43.8945 0.192976 43.9655C0.259585 44.0366 0.340032 44.0932 0.429362 44.132C0.518692 44.1707 0.615013 44.1908 0.71239 44.1909H33.4992C33.5966 44.1908 33.6929 44.1707 33.7822 44.132C33.8716 44.0932 33.952 44.0366 34.0186 43.9655C34.0852 43.8945 34.1366 43.8106 34.1695 43.719C34.2025 43.6273 34.2163 43.5299 34.2102 43.4327L34.1175 41.9743C39.7813 41.3132 44.1906 36.4869 44.1906 30.6485ZM26.3716 12.1169V14.9679C26.3714 15.1568 26.2962 15.338 26.1626 15.4716C26.029 15.6052 25.8478 15.6804 25.6589 15.6807H24.9461V11.4041H25.6589C25.8478 11.4044 26.029 11.4795 26.1626 11.6132C26.2962 11.7468 26.3714 11.9279 26.3716 12.1169ZM9.26547 15.6807H8.55271C8.36376 15.6804 8.18262 15.6052 8.04901 15.4716C7.91539 15.338 7.84022 15.1568 7.83996 14.9679V12.1169C7.84022 11.9279 7.91539 11.7468 8.04901 11.6132C8.18262 11.4795 8.36376 11.4044 8.55271 11.4041H9.26547V15.6807ZM8.55271 9.9786V7.84033C8.55467 6.13961 9.23114 4.50912 10.4337 3.30653C11.6363 2.10394 13.2668 1.42747 14.9675 1.42551H19.2441C20.9448 1.42747 22.5753 2.10394 23.7779 3.30653C24.9804 4.50912 25.6569 6.13961 25.6589 7.84033V9.9786H24.9461V8.08534C24.9904 7.97934 25.0097 7.86455 25.0024 7.7499C24.9951 7.63525 24.9616 7.52382 24.9042 7.42425C24.89 7.40109 24.5505 6.85939 23.901 7.18993C23.8529 7.21488 23.7834 7.25141 23.6952 7.29952C23.5313 7.38772 23.2988 7.51602 23.0208 7.66926C22.3659 8.03099 20.8228 8.88273 19.6976 9.4467L19.9203 8.77849C19.9622 8.65291 19.9683 8.51814 19.9378 8.38929C19.9074 8.26045 19.8418 8.14262 19.7481 8.04901C19.6545 7.9554 19.5367 7.88971 19.4079 7.8593C19.279 7.8289 19.1442 7.83497 19.0187 7.87685C18.9554 7.89824 12.6805 9.9786 9.97823 9.9786H8.55271ZM10.691 18.5317V11.3703C12.9094 11.1805 16.2683 10.2254 18.125 9.65607L17.8551 10.4659C17.8194 10.5731 17.8096 10.6872 17.8267 10.7988C17.8437 10.9105 17.887 11.0165 17.953 11.1081C18.0191 11.1997 18.106 11.2744 18.2065 11.3258C18.307 11.3773 18.4184 11.4041 18.5313 11.4041C18.9795 11.4041 19.849 11.0442 23.5206 9.02172V18.5317C23.5197 19.4766 23.1439 20.3825 22.4758 21.0506C21.8076 21.7187 20.9017 22.0945 19.9568 22.0955H14.2548C13.3099 22.0945 12.404 21.7187 11.7358 21.0506C11.0677 20.3825 10.6919 19.4766 10.691 18.5317ZM19.9568 23.521V24.9465C19.9568 25.7026 19.6564 26.4278 19.1218 26.9625C18.5871 27.4971 17.8619 27.7975 17.1058 27.7975C16.3497 27.7975 15.6245 27.4971 15.0898 26.9625C14.5551 26.4278 14.2548 25.7026 14.2548 24.9465V23.521H19.9568ZM7.83996 42.7654V34.9251C7.83996 34.7361 7.76486 34.5548 7.6312 34.4211C7.49753 34.2874 7.31624 34.2123 7.1272 34.2123C6.93817 34.2123 6.75687 34.2874 6.62321 34.4211C6.48954 34.5548 6.41444 34.7361 6.41444 34.9251V42.7654H1.47237L2.13612 32.3592C2.13701 32.344 2.1379 32.3289 2.1379 32.3137C2.13431 31.1883 2.51285 30.095 3.21157 29.2127C3.91029 28.3305 4.8878 27.7115 5.98412 27.4572L12.9201 25.825C13.1215 26.786 13.6474 27.6485 14.4096 28.2676C15.1718 28.8867 16.1239 29.2246 17.1058 29.2246C18.0877 29.2246 19.0398 28.8867 19.802 28.2676C20.5642 27.6485 21.0901 26.786 21.2915 25.825L22.3419 26.0718C21.5841 27.8001 21.2672 29.6895 21.4196 31.5706C21.5719 33.4516 22.1888 35.2654 23.2148 36.8493C24.2409 38.4332 25.644 39.7376 27.2984 40.6456C28.9528 41.5536 30.8067 42.0368 32.6938 42.0518L32.7392 42.7654H7.83996ZM33.3264 40.612C33.3228 40.6129 33.3201 40.612 33.3166 40.6129C33.313 40.6138 33.3103 40.6138 33.3068 40.6138C33.1348 40.6227 32.9611 40.6271 32.7864 40.6271C30.1607 40.6298 27.6395 39.5984 25.7684 37.7562C23.8974 35.9139 22.8269 33.4091 22.7888 30.7836C22.7507 28.1581 23.7479 25.6232 25.5646 23.7274C27.3814 21.8316 29.8716 20.7274 32.4963 20.6537C35.121 20.5801 37.6692 21.543 39.5894 23.3339C41.5096 25.1249 42.6473 27.5999 42.7564 30.2234C42.8656 32.8469 41.9372 35.4079 40.1724 37.3521C38.4076 39.2963 35.9481 40.4674 33.3264 40.612Z" fill="white"/>
<path d="M36.2796 31.3612H37.8995C38.0676 31.8368 38.3985 32.2376 38.8335 32.4928C39.2686 32.748 39.7799 32.8412 40.277 32.7559C40.7742 32.6706 41.2252 32.4123 41.5503 32.0267C41.8754 31.641 42.0537 31.1529 42.0537 30.6485C42.0537 30.1441 41.8754 29.6559 41.5503 29.2702C41.2252 28.8846 40.7742 28.6263 40.277 28.541C39.7799 28.4557 39.2686 28.5489 38.8335 28.8041C38.3985 29.0593 38.0676 29.4601 37.8995 29.9357H36.2796C36.1883 29.4891 36.0117 29.0643 35.7594 28.6846L36.9049 27.5391C37.3042 27.7293 37.7525 27.7912 38.1883 27.7163C38.6242 27.6414 39.0261 27.4334 39.339 27.1209C39.6166 26.8439 39.8127 26.496 39.9058 26.1151C39.9989 25.7342 39.9856 25.335 39.8671 24.9612C39.7486 24.5874 39.5297 24.2534 39.2342 23.9956C38.9387 23.7379 38.578 23.5664 38.1915 23.4999C37.8051 23.4333 37.4078 23.4743 37.0431 23.6184C36.6784 23.7625 36.3604 24.0041 36.1237 24.3167C35.8871 24.6294 35.741 25.0011 35.7014 25.3912C35.6618 25.7813 35.7302 26.1748 35.8992 26.5286L34.7509 27.677C34.3713 27.4246 33.9465 27.2478 33.4999 27.1564V25.5366C33.9755 25.3684 34.3763 25.0376 34.6315 24.6025C34.8867 24.1674 34.9799 23.6562 34.8946 23.159C34.8093 22.6619 34.551 22.2109 34.1654 21.8858C33.7797 21.5606 33.2915 21.3823 32.7871 21.3823C32.2827 21.3823 31.7946 21.5606 31.4089 21.8858C31.0233 22.2109 30.765 22.6619 30.6797 23.159C30.5944 23.6562 30.6876 24.1674 30.9428 24.6025C31.198 25.0376 31.5988 25.3684 32.0744 25.5366V27.1564C31.6278 27.2477 31.203 27.4243 30.8233 27.6766L29.675 26.5283C29.8435 26.1747 29.9115 25.7815 29.8717 25.3919C29.8319 25.0022 29.6857 24.6309 29.4492 24.3187C29.2127 24.0065 28.8949 23.7652 28.5305 23.6214C28.1662 23.4776 27.7693 23.4367 27.3833 23.5031C26.9972 23.5696 26.6369 23.7409 26.3416 23.9983C26.0464 24.2557 25.8275 24.5893 25.709 24.9626C25.5905 25.336 25.577 25.7347 25.6697 26.1153C25.7625 26.4959 25.9582 26.8436 26.2352 27.1205C26.5481 27.433 26.95 27.641 27.3859 27.7159C27.8217 27.7908 28.27 27.7289 28.6693 27.5387L29.8152 28.6846C29.563 29.0643 29.3864 29.4891 29.2951 29.9357H27.6752C27.5071 29.4601 27.1763 29.0593 26.7412 28.8041C26.3061 28.5489 25.7948 28.4557 25.2977 28.541C24.8005 28.6263 24.3496 28.8846 24.0244 29.2702C23.6993 29.6559 23.521 30.1441 23.521 30.6485C23.521 31.1529 23.6993 31.641 24.0244 32.0267C24.3496 32.4123 24.8005 32.6706 25.2977 32.7559C25.7948 32.8412 26.3061 32.748 26.7412 32.4928C27.1763 32.2376 27.5071 31.8368 27.6752 31.3612H29.2951C29.3864 31.8078 29.563 32.2326 29.8153 32.6123L28.6694 33.7579C28.2137 33.5385 27.6952 33.4873 27.2055 33.6133C26.7158 33.7394 26.2864 34.0345 25.9933 34.4466C25.7002 34.8587 25.5622 35.3612 25.6038 35.8651C25.6454 36.3691 25.8639 36.8421 26.2206 37.2005C26.5774 37.559 27.0493 37.7797 27.5531 37.8237C28.0569 37.8677 28.56 37.7322 28.9735 37.4411C29.3869 37.1499 29.6841 36.722 29.8125 36.2328C29.9409 35.7437 29.8922 35.225 29.675 34.7683L30.8233 33.62C31.2029 33.8725 31.6277 34.0494 32.0744 34.141V35.7608C31.5988 35.9289 31.198 36.2598 30.9428 36.6949C30.6876 37.1299 30.5944 37.6412 30.6797 38.1384C30.765 38.6355 31.0233 39.0865 31.4089 39.4116C31.7946 39.7367 32.2827 39.9151 32.7871 39.9151C33.2915 39.9151 33.7797 39.7367 34.1654 39.4116C34.551 39.0865 34.8093 38.6355 34.8946 38.1384C34.9799 37.6412 34.8867 37.1299 34.6315 36.6949C34.3763 36.2598 33.9755 35.9289 33.4999 35.7608V34.141C33.9465 34.0497 34.3713 33.873 34.751 33.6208L35.8993 34.7691C35.6854 35.2226 35.6386 35.737 35.7671 36.2217C35.8956 36.7063 36.1911 37.13 36.6016 37.4179C37.0121 37.7058 37.5111 37.8395 38.0105 37.7953C38.51 37.7511 38.9777 37.5319 39.3313 37.1764C39.6848 36.8209 39.9014 36.3519 39.9428 35.8522C39.9842 35.3525 39.8478 34.8543 39.5576 34.4454C39.2674 34.0365 38.8421 33.7433 38.3567 33.6175C37.8714 33.4917 37.3572 33.5414 36.9049 33.7579L35.759 32.6119C36.0114 32.2324 36.1882 31.8077 36.2796 31.3612ZM32.7871 32.7867C32.3642 32.7867 31.9508 32.6613 31.5992 32.4264C31.2475 32.1914 30.9735 31.8575 30.8116 31.4667C30.6498 31.076 30.6075 30.6461 30.69 30.2313C30.7725 29.8165 30.9761 29.4355 31.2752 29.1365C31.5742 28.8374 31.9552 28.6338 32.37 28.5513C32.7848 28.4688 33.2147 28.5111 33.6054 28.673C33.9961 28.8348 34.3301 29.1089 34.565 29.4605C34.8 29.8121 34.9254 30.2256 34.9254 30.6485C34.9248 31.2154 34.6993 31.7589 34.2984 32.1597C33.8975 32.5606 33.354 32.7861 32.7871 32.7867ZM39.9147 29.9357C40.0557 29.9357 40.1935 29.9775 40.3107 30.0558C40.4279 30.1342 40.5193 30.2455 40.5732 30.3757C40.6272 30.5059 40.6413 30.6493 40.6138 30.7875C40.5863 30.9258 40.5184 31.0528 40.4187 31.1525C40.319 31.2521 40.192 31.32 40.0538 31.3475C39.9155 31.375 39.7722 31.3609 39.6419 31.307C39.5117 31.253 39.4004 31.1617 39.3221 31.0445C39.2438 30.9272 39.202 30.7894 39.202 30.6485C39.2022 30.4595 39.2773 30.2783 39.4109 30.1447C39.5446 30.0111 39.7257 29.9359 39.9147 29.9357ZM37.3231 25.1045C37.4568 24.9708 37.6381 24.8957 37.8271 24.8957C38.0162 24.8957 38.1975 24.9708 38.3311 25.1045C38.4648 25.2381 38.5399 25.4194 38.5399 25.6085C38.5399 25.7975 38.4648 25.9788 38.3311 26.1125C38.2651 26.1793 38.1865 26.2325 38.0998 26.2688C38.0132 26.3051 37.9202 26.324 37.8262 26.3243C37.7323 26.3246 37.6392 26.3063 37.5523 26.2704C37.4655 26.2346 37.3865 26.182 37.3201 26.1155C37.2537 26.0491 37.201 25.9701 37.1652 25.8833C37.1294 25.7964 37.1111 25.7033 37.1114 25.6093C37.1117 25.5154 37.1305 25.4224 37.1669 25.3358C37.2032 25.2491 37.2564 25.1705 37.3232 25.1045H37.3231ZM32.7871 22.8081C32.9281 22.8081 33.0659 22.8499 33.1831 22.9283C33.3003 23.0066 33.3917 23.1179 33.4456 23.2481C33.4996 23.3784 33.5137 23.5217 33.4862 23.66C33.4587 23.7982 33.3908 23.9252 33.2911 24.0249C33.1915 24.1246 33.0645 24.1925 32.9262 24.22C32.7879 24.2475 32.6446 24.2333 32.5144 24.1794C32.3841 24.1255 32.2728 24.0341 32.1945 23.9169C32.1162 23.7997 32.0744 23.6619 32.0744 23.5209C32.0746 23.3319 32.1498 23.1508 32.2834 23.0171C32.417 22.8835 32.5982 22.8084 32.7871 22.8081ZM27.2432 26.1125C27.1266 25.9959 27.0541 25.8424 27.038 25.6783C27.0218 25.5142 27.0631 25.3496 27.1547 25.2125C27.2463 25.0754 27.3827 24.9743 27.5405 24.9265C27.6983 24.8786 27.8678 24.887 28.0201 24.9501C28.1724 25.0132 28.2982 25.1272 28.3759 25.2726C28.4536 25.418 28.4785 25.5859 28.4464 25.7476C28.4142 25.9093 28.3269 26.0549 28.1995 26.1595C28.072 26.2641 27.9122 26.3213 27.7473 26.3213C27.6537 26.3216 27.5609 26.3033 27.4743 26.2674C27.3878 26.2316 27.3092 26.1789 27.2431 26.1125H27.2432ZM25.6596 31.3612C25.5186 31.3612 25.3808 31.3194 25.2636 31.2411C25.1464 31.1628 25.055 31.0515 25.0011 30.9212C24.9471 30.791 24.933 30.6477 24.9605 30.5094C24.988 30.3712 25.0559 30.2442 25.1556 30.1445C25.2553 30.0448 25.3823 29.9769 25.5205 29.9494C25.6588 29.9219 25.8021 29.936 25.9323 29.99C26.0626 30.0439 26.1739 30.1353 26.2522 30.2525C26.3305 30.3697 26.3723 30.5075 26.3723 30.6485C26.3721 30.8374 26.297 31.0186 26.1633 31.1522C26.0297 31.2859 25.8485 31.361 25.6596 31.3612ZM28.2512 36.1925C28.1515 36.2921 28.0245 36.36 27.8862 36.3875C27.748 36.415 27.6046 36.4009 27.4744 36.347C27.3442 36.293 27.2329 36.2017 27.1545 36.0844C27.0762 35.9672 27.0344 35.8294 27.0344 35.6885C27.0344 35.5475 27.0762 35.4097 27.1545 35.2925C27.2329 35.1753 27.3442 35.0839 27.4744 35.03C27.6046 34.976 27.748 34.9619 27.8862 34.9894C28.0245 35.0169 28.1515 35.0848 28.2512 35.1845C28.3179 35.2503 28.3709 35.3288 28.4071 35.4153C28.4433 35.5018 28.4619 35.5947 28.4619 35.6885C28.4619 35.7822 28.4433 35.8751 28.4071 35.9616C28.3709 36.0481 28.3179 36.1266 28.2512 36.1925ZM32.7871 38.4888C32.6462 38.4888 32.5084 38.447 32.3912 38.3687C32.2739 38.2904 32.1826 38.179 32.1286 38.0488C32.0747 37.9186 32.0606 37.7752 32.0881 37.637C32.1156 37.4987 32.1835 37.3717 32.2831 37.272C32.3828 37.1724 32.5098 37.1045 32.6481 37.077C32.7863 37.0495 32.9297 37.0636 33.0599 37.1175C33.1901 37.1715 33.3015 37.2628 33.3798 37.3801C33.4581 37.4973 33.4999 37.6351 33.4999 37.776C33.4997 37.965 33.4245 38.1462 33.2909 38.2798C33.1573 38.4134 32.9761 38.4886 32.7871 38.4888ZM38.3311 35.1845C38.4477 35.3011 38.5203 35.4545 38.5364 35.6186C38.5525 35.7827 38.5113 35.9473 38.4197 36.0844C38.328 36.2215 38.1917 36.3226 38.0339 36.3705C37.8761 36.4183 37.7066 36.41 37.5543 36.3469C37.4019 36.2837 37.2762 36.1698 37.1985 36.0243C37.1207 35.8789 37.0958 35.711 37.128 35.5493C37.1602 35.3876 37.2474 35.242 37.3749 35.1374C37.5024 35.0328 37.6621 34.9756 37.827 34.9756C37.9207 34.9754 38.0135 34.9937 38.1 35.0295C38.1865 35.0654 38.2651 35.118 38.3311 35.1845Z" fill="white"/>
<path d="M33.4996 30.6485C33.8933 30.6485 34.2124 30.3294 34.2124 29.9358C34.2124 29.5421 33.8933 29.223 33.4996 29.223C33.106 29.223 32.7869 29.5421 32.7869 29.9358C32.7869 30.3294 33.106 30.6485 33.4996 30.6485Z" fill="white"/>
<path d="M39.9143 7.8404C39.7252 7.8404 39.5439 7.91549 39.4103 8.04916C39.2766 8.18283 39.2015 8.36412 39.2015 8.55315H38.3988C38.3317 8.29538 38.2288 8.04826 38.0932 7.81901L38.6616 7.2497C38.7271 7.31867 38.8058 7.37383 38.893 7.41191C38.9802 7.45 39.0741 7.47025 39.1692 7.47147C39.2643 7.47269 39.3588 7.45485 39.4469 7.41901C39.535 7.38316 39.6151 7.33004 39.6823 7.26277C39.7496 7.1955 39.8027 7.11544 39.8386 7.02731C39.8744 6.93919 39.8923 6.84478 39.891 6.74965C39.8898 6.65452 39.8696 6.5606 39.8315 6.47342C39.7934 6.38624 39.7382 6.30757 39.6693 6.24204L39.1659 5.73776L38.6616 5.23438C38.5961 5.16541 38.5174 5.11025 38.4302 5.07216C38.343 5.03407 38.2491 5.01382 38.154 5.01261C38.0589 5.01139 37.9645 5.02923 37.8763 5.06507C37.7882 5.10091 37.7081 5.15404 37.6409 5.22131C37.5736 5.28858 37.5205 5.36864 37.4846 5.45677C37.4488 5.54489 37.431 5.6393 37.4322 5.73443C37.4334 5.82956 37.4536 5.92348 37.4917 6.01066C37.5298 6.09784 37.585 6.17651 37.6539 6.24204L37.0846 6.81046C36.8554 6.67483 36.6083 6.57197 36.3505 6.50487V5.70212C36.5395 5.70212 36.7208 5.62703 36.8545 5.49336C36.9882 5.3597 37.0632 5.1784 37.0632 4.98937C37.0632 4.80033 36.9882 4.61904 36.8545 4.48537C36.7208 4.35171 36.5395 4.27661 36.3505 4.27661H34.925C34.7359 4.27661 34.5547 4.35171 34.421 4.48537C34.2873 4.61904 34.2122 4.80033 34.2122 4.98937C34.2122 5.1784 34.2873 5.3597 34.421 5.49336C34.5547 5.62703 34.7359 5.70212 34.925 5.70212V6.50487C34.6672 6.57197 34.4201 6.67483 34.1908 6.81046L33.6215 6.24204C33.6905 6.17651 33.7457 6.09784 33.7837 6.01066C33.8218 5.92348 33.8421 5.82956 33.8433 5.73443C33.8445 5.6393 33.8267 5.54489 33.7908 5.45677C33.755 5.36864 33.7019 5.28858 33.6346 5.22131C33.5673 5.15404 33.4873 5.10091 33.3991 5.06507C33.311 5.02923 33.2166 5.01139 33.1215 5.01261C33.0263 5.01382 32.9324 5.03407 32.8452 5.07216C32.7581 5.11025 32.6794 5.16541 32.6139 5.23438L32.1096 5.73776L31.6062 6.24204C31.5372 6.30757 31.4821 6.38624 31.444 6.47342C31.4059 6.5606 31.3857 6.65452 31.3844 6.74965C31.3832 6.84478 31.4011 6.93919 31.4369 7.02731C31.4727 7.11544 31.5259 7.1955 31.5931 7.26277C31.6604 7.33004 31.7405 7.38316 31.8286 7.41901C31.9167 7.45485 32.0111 7.47269 32.1063 7.47147C32.2014 7.47025 32.2953 7.45 32.3825 7.41191C32.4697 7.37383 32.5483 7.31867 32.6139 7.2497L33.1823 7.81901C33.0467 8.04826 32.9438 8.29538 32.8767 8.55315H32.074C32.074 8.36412 31.9989 8.18283 31.8652 8.04916C31.7315 7.91549 31.5502 7.8404 31.3612 7.8404C31.1722 7.8404 30.9909 7.91549 30.8572 8.04916C30.7235 8.18283 30.6484 8.36412 30.6484 8.55315V9.97867C30.6484 10.1677 30.7235 10.349 30.8572 10.4827C30.9909 10.6163 31.1722 10.6914 31.3612 10.6914C31.5502 10.6914 31.7315 10.6163 31.8652 10.4827C31.9989 10.349 32.074 10.1677 32.074 9.97867H32.8767C32.9438 10.2364 33.0467 10.4836 33.1823 10.7128L32.6139 11.2821C32.5483 11.2131 32.4697 11.158 32.3825 11.1199C32.2953 11.0818 32.2014 11.0616 32.1063 11.0603C32.0111 11.0591 31.9167 11.077 31.8286 11.1128C31.7405 11.1487 31.6604 11.2018 31.5931 11.2691C31.5259 11.3363 31.4727 11.4164 31.4369 11.5045C31.4011 11.5926 31.3832 11.687 31.3844 11.7822C31.3857 11.8773 31.4059 11.9712 31.444 12.0584C31.4821 12.1456 31.5372 12.2243 31.6062 12.2898L32.1096 12.7941L32.6139 13.2974C32.6794 13.3664 32.7581 13.4216 32.8452 13.4597C32.9324 13.4977 33.0263 13.518 33.1215 13.5192C33.2166 13.5204 33.311 13.5026 33.3991 13.4667C33.4873 13.4309 33.5673 13.3778 33.6346 13.3105C33.7019 13.2432 33.755 13.1632 33.7908 13.0751C33.8267 12.9869 33.8445 12.8925 33.8433 12.7974C33.8421 12.7023 33.8218 12.6083 33.7837 12.5212C33.7457 12.434 33.6905 12.3553 33.6215 12.2898L34.1908 11.7214C34.4201 11.857 34.6672 11.9598 34.925 12.027V12.8297C34.7359 12.8297 34.5547 12.9048 34.421 13.0385C34.2873 13.1721 34.2122 13.3534 34.2122 13.5424C34.2122 13.7315 34.2873 13.9128 34.421 14.0464C34.5547 14.1801 34.7359 14.2552 34.925 14.2552H36.3505C36.5395 14.2552 36.7208 14.1801 36.8545 14.0464C36.9882 13.9128 37.0632 13.7315 37.0632 13.5424C37.0632 13.3534 36.9882 13.1721 36.8545 13.0385C36.7208 12.9048 36.5395 12.8297 36.3505 12.8297V12.027C36.6083 11.9598 36.8554 11.857 37.0846 11.7214L37.6539 12.2898C37.585 12.3553 37.5298 12.434 37.4917 12.5212C37.4536 12.6083 37.4334 12.7023 37.4322 12.7974C37.431 12.8925 37.4488 12.9869 37.4846 13.0751C37.5205 13.1632 37.5736 13.2432 37.6409 13.3105C37.7081 13.3778 37.7882 13.4309 37.8763 13.4667C37.9645 13.5026 38.0589 13.5204 38.154 13.5192C38.2491 13.518 38.343 13.4977 38.4302 13.4597C38.5174 13.4216 38.5961 13.3664 38.6616 13.2974L39.1659 12.7941L39.6693 12.2898C39.7382 12.2243 39.7934 12.1456 39.8315 12.0584C39.8696 11.9712 39.8898 11.8773 39.891 11.7822C39.8923 11.687 39.8744 11.5926 39.8386 11.5045C39.8027 11.4164 39.7496 11.3363 39.6823 11.2691C39.6151 11.2018 39.535 11.1487 39.4469 11.1128C39.3588 11.077 39.2643 11.0591 39.1692 11.0603C39.0741 11.0616 38.9802 11.0818 38.893 11.1199C38.8058 11.158 38.7271 11.2131 38.6616 11.2821L38.0932 10.7128C38.2288 10.4836 38.3317 10.2364 38.3988 9.97867H39.2015C39.2015 10.1677 39.2766 10.349 39.4103 10.4827C39.5439 10.6163 39.7252 10.6914 39.9143 10.6914C40.1033 10.6914 40.2846 10.6163 40.4183 10.4827C40.5519 10.349 40.627 10.1677 40.627 9.97867V8.55315C40.627 8.36412 40.5519 8.18283 40.4183 8.04916C40.2846 7.91549 40.1033 7.8404 39.9143 7.8404ZM35.6377 10.6914C35.3558 10.6914 35.0802 10.6078 34.8458 10.4512C34.6113 10.2945 34.4286 10.0719 34.3207 9.81143C34.2128 9.55095 34.1846 9.26433 34.2396 8.98781C34.2946 8.71128 34.4304 8.45728 34.6297 8.25792C34.8291 8.05856 35.0831 7.92279 35.3596 7.86779C35.6362 7.81278 35.9228 7.84101 36.1833 7.94891C36.4437 8.0568 36.6664 8.23951 36.823 8.47394C36.9796 8.70836 37.0632 8.98397 37.0632 9.26591C37.0628 9.64383 36.9124 10.0061 36.6452 10.2734C36.378 10.5406 36.0157 10.6909 35.6377 10.6914Z" fill="white"/>
<path d="M35.6378 9.97861C36.0315 9.97861 36.3506 9.6595 36.3506 9.26586C36.3506 8.87221 36.0315 8.5531 35.6378 8.5531C35.2442 8.5531 34.925 8.87221 34.925 9.26586C34.925 9.6595 35.2442 9.97861 35.6378 9.97861Z" fill="white"/>
<path d="M6.91455 21.5904C7.0532 21.3033 7.12529 20.9886 7.12544 20.6697C7.1256 20.3509 7.05381 20.0361 6.91544 19.7488L7.50614 19.1582C7.63416 19.0234 7.70448 18.844 7.7021 18.6581C7.69972 18.4722 7.62483 18.2947 7.4934 18.1632C7.36197 18.0318 7.18439 17.9569 6.99853 17.9545C6.81267 17.9521 6.63323 18.0225 6.49848 18.1505L5.90778 18.7403C5.68617 18.6347 5.44812 18.5678 5.20393 18.5425C4.81333 18.5024 4.41923 18.5711 4.0653 18.7412L3.47461 18.1505C3.33985 18.0225 3.16042 17.9521 2.97456 17.9545C2.7887 17.9569 2.61112 18.0318 2.47969 18.1632C2.34825 18.2947 2.27336 18.4722 2.27098 18.6581C2.2686 18.844 2.33892 19.0234 2.46695 19.1582L3.05675 19.7488C2.95115 19.9705 2.88426 20.2085 2.85896 20.4527C2.81882 20.8433 2.88759 21.2374 3.05764 21.5913L2.46695 22.182C2.39798 22.2476 2.34282 22.3262 2.30473 22.4134C2.26664 22.5006 2.24639 22.5945 2.24518 22.6896C2.24396 22.7848 2.2618 22.8792 2.29764 22.9673C2.33348 23.0554 2.38661 23.1355 2.45388 23.2028C2.52115 23.27 2.60121 23.3231 2.68933 23.359C2.77746 23.3948 2.87187 23.4127 2.967 23.4115C3.06213 23.4102 3.15605 23.39 3.24323 23.3519C3.33041 23.3138 3.40908 23.2587 3.47461 23.1897L4.0653 22.5999C4.28692 22.7055 4.52497 22.7724 4.76915 22.7977C4.84221 22.8048 4.91527 22.8084 4.98832 22.8084C5.30641 22.808 5.62034 22.7362 5.90689 22.5981L6.49848 23.1897C6.56401 23.2587 6.64268 23.3138 6.72986 23.3519C6.81704 23.39 6.91096 23.4102 7.00609 23.4115C7.10122 23.4127 7.19563 23.3948 7.28375 23.359C7.37188 23.3231 7.45194 23.27 7.51921 23.2028C7.58648 23.1355 7.6396 23.0554 7.67545 22.9673C7.71129 22.8792 7.72913 22.7848 7.72791 22.6896C7.72669 22.5945 7.70644 22.5006 7.66835 22.4134C7.63027 22.3262 7.57511 22.2476 7.50614 22.182L6.91455 21.5904ZM5.69574 20.7423C5.68178 20.8794 5.62835 21.0095 5.54193 21.1169C5.4555 21.2243 5.33979 21.3044 5.20881 21.3473C5.07782 21.3903 4.93719 21.3944 4.80394 21.359C4.6707 21.3237 4.55056 21.2505 4.45808 21.1483C4.3656 21.046 4.30475 20.9192 4.2829 20.7831C4.26105 20.647 4.27913 20.5074 4.33497 20.3814C4.3908 20.2554 4.48199 20.1482 4.59747 20.073C4.71296 19.9977 4.8478 19.9575 4.98565 19.9573C5.01005 19.9572 5.03444 19.9584 5.05871 19.9609C5.24668 19.9803 5.41927 20.0735 5.53868 20.2199C5.65809 20.3664 5.71456 20.5542 5.69574 20.7423Z" fill="white"/>
</svg>
