<svg width="30" height="30" viewBox="0 0 30 30" fill="none" xmlns="http://www.w3.org/2000/svg">
<path d="M18.1312 0.762256C19.0327 0.29655 20.1363 0.51608 20.791 1.29132C21.2457 1.82979 21.9331 2.11449 22.6353 2.05526C23.6464 1.96996 24.582 2.5952 24.8901 3.5619C25.1041 4.23337 25.6303 4.75949 26.3018 4.97355C27.2685 5.28167 27.8937 6.21732 27.8084 7.22837C27.7492 7.93061 28.034 8.61808 28.5724 9.07273C29.3476 9.72731 29.5671 10.831 29.1014 11.7325C28.778 12.3586 28.778 13.1027 29.1014 13.7288C29.5671 14.6303 29.3476 15.734 28.5724 16.3886C28.0339 16.8433 27.7492 17.5307 27.8084 18.233C27.8937 19.244 27.2685 20.1797 26.3018 20.4878C25.6303 20.7018 25.1042 21.228 24.8901 21.8994C24.582 22.8661 23.6464 23.4913 22.6353 23.4061C21.9331 23.3468 21.2456 23.6316 20.791 24.17C20.1364 24.9453 19.0327 25.1648 18.1312 24.6991C17.5051 24.3756 16.761 24.3756 16.1348 24.6991C15.2334 25.1648 14.1297 24.9453 13.4751 24.17C13.0204 23.6316 12.333 23.3468 11.6307 23.4061C10.6197 23.4914 9.68401 22.8661 9.37589 21.8994C9.16189 21.228 8.63572 20.7018 7.96425 20.4878C6.99754 20.1797 6.37236 19.244 6.4576 18.233C6.51684 17.5307 6.23207 16.8433 5.69366 16.3886C4.91842 15.734 4.69889 14.6303 5.1646 13.7288C5.48807 13.1027 5.48807 12.3587 5.1646 11.7325C4.69889 10.831 4.91842 9.72737 5.69366 9.07273C6.23213 8.61802 6.51684 7.93061 6.4576 7.22837C6.37231 6.21732 6.99754 5.28167 7.96425 4.97355C8.63572 4.75955 9.16184 4.23337 9.37589 3.5619C9.68401 2.5952 10.6197 1.97002 11.6307 2.05526C12.333 2.11449 13.0204 1.82973 13.4751 1.29132C14.1297 0.51608 15.2334 0.29655 16.1348 0.762256C16.761 1.08573 17.5051 1.08573 18.1312 0.762256Z" fill="#FDE0BE"/>
<path d="M15.8678 9.78626C15.8678 6.16784 17.4362 2.91614 19.9298 0.672668C19.3602 0.447433 18.7048 0.465903 18.1312 0.762256C17.5051 1.08573 16.761 1.08573 16.1348 0.762256C15.2334 0.29655 14.1297 0.51608 13.4751 1.29132C13.0204 1.82979 12.333 2.11449 11.6307 2.05526C10.6197 1.96996 9.68401 2.5952 9.37589 3.5619C9.16189 4.23337 8.63572 4.75949 7.96425 4.97355C6.99754 5.28167 6.37236 6.21732 6.4576 7.22837C6.51684 7.93061 6.23207 8.61808 5.69366 9.07273C4.91842 9.72731 4.69889 10.831 5.1646 11.7325C5.48807 12.3586 5.48807 13.1027 5.1646 13.7288C4.69889 14.6303 4.91842 15.734 5.69366 16.3886C6.23213 16.8433 6.51684 17.5307 6.4576 18.233C6.37231 19.244 6.99748 20.1797 7.96425 20.4878C8.63572 20.7018 9.16183 21.228 9.37589 21.8994C9.68401 22.8661 10.6197 23.4913 11.6307 23.4061C12.333 23.3468 13.0204 23.6316 13.4751 24.17C14.1297 24.9453 15.2334 25.1648 16.1348 24.6991C16.761 24.3756 17.505 24.3756 18.1312 24.6991C19.0327 25.1648 20.1363 24.9453 20.791 24.17C21.2457 23.6315 21.9331 23.3468 22.6353 23.4061C23.6464 23.4914 24.582 22.8661 24.8901 21.8994C24.9188 21.8095 24.9535 21.7224 24.9929 21.6381C19.7409 20.2543 15.8678 15.4729 15.8678 9.78626Z" fill="#F7B073"/>
<path d="M17.1293 21.2014C21.8075 21.2014 25.5999 17.409 25.5999 12.7308C25.5999 8.05266 21.8075 4.26025 17.1293 4.26025C12.4511 4.26025 8.65869 8.05266 8.65869 12.7308C8.65869 17.409 12.4511 21.2014 17.1293 21.2014Z" fill="#FDBEB9"/>
<path d="M17.1293 4.26025C12.4511 4.26025 8.65869 8.05267 8.65869 12.7308C8.65869 17.409 12.4511 21.2014 17.1293 21.2014C18.6905 21.2014 20.1527 20.7786 21.4086 20.0419C18.0696 17.8525 15.864 14.0774 15.864 9.78643C15.864 7.79825 16.3385 5.92125 17.1788 4.26084C17.1623 4.26078 17.1459 4.26025 17.1293 4.26025Z" fill="#FD7DA0"/>
<path d="M19.6681 12.4885C20.9353 12.4885 21.9626 11.4612 21.9626 10.1939C21.9626 8.92671 20.9353 7.89941 19.6681 7.89941C18.4008 7.89941 17.3735 8.92671 17.3735 10.1939C17.3735 11.4612 18.4008 12.4885 19.6681 12.4885Z" fill="#DB4B86"/>
<path d="M8.91406 22.8121L7.05017 20.9482L4.73417 23.2642C4.21947 23.7789 4.21947 24.6134 4.73417 25.1281C5.24888 25.6428 6.08335 25.6428 6.59806 25.1281L8.91406 22.8121Z" fill="#27A2CC"/>
<path d="M11.5829 22.8924C10.3085 24.1669 8.24204 24.1669 6.96757 22.8924C5.6931 21.6179 5.6931 19.5516 6.96757 18.277C8.24204 17.0025 11.0286 16.2824 12.303 17.5569C13.5775 18.8313 12.8574 21.6179 11.5829 22.8924Z" fill="#67CCD1"/>
<path d="M9.10228 19.3058C9.10228 18.4392 9.34522 17.6294 9.76634 16.9404C8.7081 17.0993 7.63228 17.6124 6.96757 18.277C5.6931 19.5515 5.6931 21.6178 6.96757 22.8924C8.14004 24.0648 9.9821 24.1578 11.2619 23.1731C9.96616 22.373 9.10228 20.9405 9.10228 19.3058Z" fill="#27A2CC"/>
<path d="M12.9216 20.0837C14.1614 20.7948 15.5981 21.2014 17.1298 21.2014C21.8079 21.2014 25.6004 17.409 25.6004 12.7308C25.6004 8.05267 21.8079 4.26025 17.1298 4.26025C12.4516 4.26025 8.65918 8.05267 8.65918 12.7308C8.65918 14.2625 9.06583 15.6992 9.77689 16.939" stroke="#052A75" stroke-width="1.03922" stroke-miterlimit="10" stroke-linejoin="round"/>
<path d="M10.9885 23.3647C11.1954 23.4095 11.4115 23.4246 11.6312 23.4061C12.3334 23.3468 13.0209 23.6316 13.4756 24.17C14.1301 24.9453 15.2339 25.1648 16.1353 24.6991C16.7614 24.3756 17.5055 24.3756 18.1317 24.6991C19.0331 25.1648 20.1368 24.9453 20.7914 24.17C21.2461 23.6316 21.9336 23.3468 22.6358 23.4061C23.6469 23.4914 24.5825 22.8661 24.8906 21.8994C25.1046 21.228 25.6308 20.7018 26.3023 20.4878C27.269 20.1797 27.8941 19.244 27.8089 18.233C27.7497 17.5307 28.0344 16.8433 28.5729 16.3886C29.3481 15.734 29.5676 14.6303 29.1019 13.7288C28.7784 13.1027 28.7784 12.3587 29.1019 11.7325C29.5676 10.831 29.3481 9.72737 28.5729 9.07273C28.0344 8.61802 27.7497 7.93061 27.8089 7.22837C27.8942 6.21732 27.269 5.28167 26.3023 4.97355C25.6308 4.75955 25.1047 4.23337 24.8906 3.5619C24.5825 2.5952 23.6468 1.97002 22.6358 2.05526C21.9336 2.11449 21.2461 1.82973 20.7914 1.29132C20.1369 0.51608 19.0331 0.29655 18.1317 0.762256C17.5056 1.08573 16.7615 1.08573 16.1353 0.762256C15.2339 0.29655 14.1302 0.51608 13.4756 1.29132C13.0209 1.82979 12.3334 2.11449 11.6312 2.05526C10.6201 1.96996 9.6845 2.5952 9.37638 3.5619C9.16238 4.23337 8.63621 4.75949 7.96474 4.97355C6.99803 5.28167 6.37285 6.21732 6.45809 7.22837C6.51732 7.93061 6.23256 8.61808 5.69415 9.07273C4.91891 9.72732 4.69938 10.831 5.16509 11.7325C5.48856 12.3586 5.48856 13.1027 5.16509 13.7288C4.69938 14.6303 4.91891 15.734 5.69415 16.3886C6.23262 16.8433 6.51732 17.5307 6.45809 18.233C6.43956 18.4527 6.45468 18.6688 6.49944 18.8757" stroke="#052A75" stroke-width="1.03922" stroke-miterlimit="10" stroke-linejoin="round"/>
<path d="M0.519531 29.3432C1.18288 29.1221 1.70341 28.6016 1.92447 27.9383C2.14559 27.2749 2.66612 26.7544 3.32941 26.5334C3.99277 26.3122 4.5133 25.7917 4.73436 25.1284" stroke="#27A2CC" stroke-width="1.03922" stroke-miterlimit="10" stroke-linecap="round" stroke-linejoin="round"/>
<path d="M6.23513 21.7639L4.73466 23.2644C4.21996 23.7791 4.21996 24.6136 4.73466 25.1283C5.24937 25.643 6.08384 25.643 6.59854 25.1283L8.09902 23.6278" stroke="#052A75" stroke-width="1.03922" stroke-miterlimit="10" stroke-linejoin="round"/>
<path d="M11.5834 22.8924C10.3089 24.1669 8.24253 24.1669 6.96806 22.8924C5.69359 21.6179 5.69359 19.5516 6.96806 18.277C8.24253 17.0025 11.0291 16.2824 12.3035 17.5569C13.578 18.8313 12.8579 21.6179 11.5834 22.8924Z" stroke="#052A75" stroke-width="1.03922" stroke-miterlimit="10" stroke-linejoin="round"/>
</svg>
