<svg width="46" height="46" viewBox="0 0 46 46" fill="none" xmlns="http://www.w3.org/2000/svg">
<path d="M10.0553 33.0235C13.3567 36.3249 17.535 39.3345 22.4745 41.9686C22.5777 42.0237 22.6929 42.0525 22.8099 42.0525C22.9269 42.0525 23.042 42.0237 23.1453 41.9686C28.0847 39.3343 32.263 36.3247 35.5643 33.0235C38.2198 30.3681 40.3181 27.5179 41.801 24.5525C44.281 19.5922 44.2056 15.997 44.1926 15.6651C44.1884 13.1388 43.3455 10.6854 41.7964 8.68979C40.2472 6.69418 38.0794 5.26933 35.633 4.63877C33.1867 4.00822 30.6002 4.20766 28.2794 5.20578C25.9586 6.20391 24.0348 7.94425 22.8099 10.1538C21.5852 7.9439 19.6615 6.20319 17.3406 5.20481C15.0197 4.20643 12.433 4.00689 9.98646 4.63749C7.5399 5.26809 5.37195 6.69315 3.82283 8.68902C2.2737 10.6849 1.43109 13.1386 1.42721 15.6651C1.41429 15.997 1.33883 19.5922 3.81895 24.5525C5.30167 27.5179 7.39984 30.3681 10.0553 33.0235ZM2.85174 15.7163C2.85237 15.7045 2.85263 15.6926 2.85263 15.6807C2.85315 13.3508 3.66881 11.0945 5.15824 9.3028C6.64767 7.51115 8.717 6.29706 11.0076 5.87094C13.2982 5.44482 15.6657 5.83353 17.6998 6.9697C19.7339 8.10587 21.3064 9.9179 22.1447 12.0917C22.1965 12.2261 22.2878 12.3416 22.4065 12.4231C22.5252 12.5046 22.6658 12.5482 22.8098 12.5482C22.9538 12.5482 23.0944 12.5046 23.2132 12.4231C23.3319 12.3416 23.4231 12.2261 23.4749 12.0917C24.3132 9.9178 25.8857 8.10567 27.9198 6.96941C29.9539 5.83316 32.3215 5.44441 34.6121 5.87054C36.9028 6.29668 38.9722 7.51083 40.4616 9.30257C41.951 11.0943 42.7666 13.3507 42.767 15.6807C42.767 15.6925 42.767 15.7044 42.7679 15.7163C42.7697 15.7501 42.9092 19.1483 40.5258 23.915C39.1117 26.7433 37.1034 29.4687 34.5565 32.0156C31.4293 35.1428 27.4787 38.0065 22.81 40.531C18.1692 38.0217 14.2376 35.1764 11.1196 32.0717C8.57491 29.5373 6.56351 26.8248 5.14138 24.0095C3.20741 20.1806 2.79811 16.9093 2.85174 15.7163Z" fill="white"/>
<path d="M37.2728 12.9817C35.7346 11.5518 33.4712 10.9671 31.2172 11.4179C29.5085 11.7596 28.2484 12.868 27.5733 14.6229C27.3357 15.2527 27.181 15.9107 27.113 16.5804C26.483 16.8261 25.964 17.2926 25.6529 17.893C25.2941 18.5947 25.2541 19.3873 25.3254 20.0647L22.7032 18.7535L22.4551 17.7599C22.6848 17.3411 22.8048 16.871 22.8039 16.3933C22.8031 16.004 22.7229 15.6188 22.5682 15.2615C22.4135 14.9042 22.1875 14.5822 21.904 14.3152C21.6206 14.0471 21.2847 13.8405 20.9176 13.7084C20.5504 13.5764 20.1599 13.5218 19.7706 13.548C19.072 13.5985 18.4157 13.902 17.9249 14.4018C17.434 14.9015 17.1423 15.5631 17.1044 16.2626C17.0819 16.726 17.1735 17.188 17.3711 17.6078C17.5687 18.0277 17.8662 18.3927 18.2377 18.6708L18.5339 20.7695C18.5555 20.9226 18.6264 21.0646 18.7357 21.1739L19.4149 21.8531C18.9436 22.0973 18.5061 22.4018 18.1134 22.7589C17.5254 21.4602 16.4276 20.5722 14.8793 20.1595C14.1392 19.97 13.3757 19.8886 12.6123 19.9178L12.522 19.6467C12.3391 19.0975 11.9505 18.6404 11.4378 18.3716C10.9251 18.1027 10.3281 18.043 9.77232 18.2048C9.21649 18.3667 8.74498 18.7376 8.45678 19.2396C8.16858 19.7417 8.0861 20.3359 8.22665 20.8975L9.05523 24.2126C9.15618 24.6168 9.37302 24.9826 9.6791 25.2652C9.98517 25.5478 10.3671 25.7348 10.7781 25.8032L13.4381 26.2465C13.0574 29.7039 15.0795 31.7732 15.1714 31.8653C16.4503 33.1442 18.4978 33.8226 20.8209 33.8226C22.0261 33.8166 23.225 33.6482 24.3852 33.3221C28.0406 32.3097 30.6385 30.0426 31.3346 27.2575C31.9432 24.8232 33.356 24.3774 34.9918 23.861C36.7648 23.3016 38.7739 22.6671 39.1907 19.3328C39.6146 15.9507 38.3816 14.0122 37.2728 12.9817ZM29.9527 26.9119C29.3825 29.192 27.1594 31.0748 24.0056 31.9484C20.8517 32.8219 17.7066 32.3834 16.1831 30.8598C15.8241 30.4552 15.533 29.9952 15.3211 29.4976C14.8132 28.35 14.6885 27.1056 14.9499 25.799C14.9687 25.7053 14.9684 25.6088 14.9491 25.5152C14.9298 25.4216 14.8919 25.3329 14.8376 25.2542C14.7833 25.1756 14.7138 25.1087 14.6331 25.0575C14.5525 25.0062 14.4624 24.9718 14.3681 24.9561L11.0134 24.397C10.8765 24.3742 10.7491 24.3119 10.6471 24.2177C10.5451 24.1235 10.4728 24.0016 10.4392 23.8669L9.61065 20.5518C9.55964 20.3478 9.58963 20.132 9.69431 19.9497C9.79899 19.7673 9.97022 19.6327 10.1721 19.5739C10.3739 19.5151 10.5907 19.5368 10.7769 19.6344C10.9631 19.732 11.1043 19.8979 11.1708 20.0974L11.4367 20.8952C11.4896 21.0531 11.596 21.1876 11.7376 21.2754C11.8791 21.3631 12.0469 21.3986 12.2119 21.3756C12.9951 21.2922 13.7869 21.3501 14.5496 21.5467C16.01 21.9476 16.8447 22.8499 17.102 24.3016V27.0847C17.102 27.2737 17.1771 27.455 17.3107 27.5887C17.4444 27.7224 17.6257 27.7975 17.8147 27.7975C18.0038 27.7975 18.1851 27.7224 18.3187 27.5887C18.4524 27.455 18.5275 27.2737 18.5275 27.0847V24.4304C18.7263 24.1322 19.323 23.3855 20.5733 22.8877C21.2215 23.3106 22.7691 24.3003 23.9108 24.8711C23.9946 24.9139 24.086 24.9396 24.1798 24.9468C24.2736 24.954 24.3679 24.9426 24.4572 24.9132C24.5466 24.8838 24.6293 24.837 24.7004 24.7756C24.7716 24.7141 24.8299 24.6391 24.872 24.555C24.9141 24.4708 24.9391 24.3792 24.9456 24.2853C24.9521 24.1915 24.9399 24.0973 24.9098 24.0082C24.8797 23.919 24.8323 23.8368 24.7703 23.7661C24.7082 23.6953 24.6328 23.6376 24.5483 23.5962C23.3074 22.9757 21.4677 21.7709 21.1191 21.5407L19.9127 20.3344L19.6048 18.1531C19.5896 18.0449 19.5496 17.9417 19.488 17.8513C19.4265 17.761 19.3449 17.6861 19.2498 17.6323C19.0203 17.5031 18.8313 17.3125 18.704 17.0819C18.5767 16.8513 18.5162 16.5898 18.5291 16.3267C18.5479 15.9774 18.6935 15.647 18.9386 15.3974C19.1836 15.1478 19.5113 14.9961 19.8602 14.9708C20.1296 14.9531 20.3984 15.0124 20.6355 15.1416C20.8725 15.2708 21.0679 15.4647 21.199 15.7007C21.3301 15.9368 21.3914 16.2052 21.3758 16.4747C21.3603 16.7442 21.2684 17.0037 21.1111 17.2231C21.0507 17.3071 21.0094 17.4033 20.9899 17.505C20.9705 17.6066 20.9734 17.7112 20.9984 17.8116L21.3994 19.417C21.4243 19.5168 21.4705 19.61 21.5349 19.6903C21.5992 19.7705 21.6802 19.8359 21.7721 19.8818L26.0487 22.0201C26.0576 22.0245 26.9154 22.4745 26.404 24.0083C26.3744 24.0971 26.3626 24.1908 26.3692 24.2842C26.3758 24.3776 26.4008 24.4687 26.4427 24.5525C26.4845 24.6362 26.5425 24.7108 26.6132 24.7722C26.6839 24.8335 26.766 24.8803 26.8548 24.9099C26.9436 24.9395 27.0374 24.9513 27.1308 24.9447C27.2241 24.9381 27.3153 24.9131 27.399 24.8712C27.4827 24.8294 27.5574 24.7714 27.6187 24.7007C27.68 24.63 27.7269 24.5479 27.7565 24.4591C28.3853 22.5726 27.6176 21.4054 26.9575 20.9141C26.7794 20.3558 26.5537 19.2583 26.9235 18.539C27.1145 18.1677 27.4555 17.9252 27.9659 17.7976C28.1197 17.7588 28.2562 17.67 28.3539 17.5451C28.4517 17.4203 28.5051 17.2665 28.5059 17.1079C28.5065 16.9926 28.5383 14.8947 29.8607 13.6469C30.0607 16.0939 30.926 17.2004 31.6743 17.6991C32.3631 18.1584 32.7293 18.623 32.7054 19.0076C32.6837 19.3562 32.3179 19.7489 31.751 20.0322C31.2909 20.2621 30.7898 20.819 31.0148 22.1661C31.1357 22.7952 31.3206 23.4104 31.5668 24.0019C30.8791 24.633 30.2958 25.5394 29.9527 26.9119ZM37.7773 19.156C37.4738 21.5832 36.2532 21.9684 34.5638 22.5017C33.9509 22.6785 33.3534 22.9048 32.7771 23.1783C32.2825 21.8338 32.3859 21.3772 32.4146 21.2943C33.4497 20.7686 34.0738 19.9687 34.1281 19.0961C34.1683 18.4504 33.9124 17.478 32.465 16.513C31.7291 16.023 31.2939 14.7096 31.2473 12.8751C31.3282 12.8531 31.411 12.8329 31.4967 12.8158C33.2748 12.4601 35.1166 12.9237 36.3023 14.0258C37.5427 15.1787 38.0527 16.9527 37.7773 19.156Z" fill="white"/>
</svg>
