<svg width="25" height="25" viewBox="0 0 25 25" fill="none" xmlns="http://www.w3.org/2000/svg">
<circle cx="12.5" cy="12.5" r="12.5" fill="#F5F5F5"/>
<g clip-path="url(#clip0_1922_510)">
<path d="M12.3489 4C9.00748 4 6.28906 6.71845 6.28906 10.0598C6.28906 11.3973 6.5954 12.7796 7.19954 14.1681C7.67722 15.266 8.34143 16.3706 9.17376 17.4512C10.5849 19.2835 11.9801 20.4055 12.0388 20.4524L12.3489 20.7L12.6591 20.4524C12.7178 20.4055 14.113 19.2835 15.5242 17.4512C16.3565 16.3706 17.0207 15.2659 17.4984 14.1681C18.1025 12.7796 18.4089 11.3973 18.4089 10.0598C18.4088 6.71845 15.6903 4 12.3489 4ZM12.3489 11.8116C11.383 11.8116 10.5972 11.0257 10.5972 10.0598C10.5972 9.09396 11.383 8.30811 12.3489 8.30811C13.3148 8.30811 14.1007 9.09396 14.1007 10.0598C14.1007 11.0257 13.3148 11.8116 12.3489 11.8116ZM15.7576 10.0598C15.7576 8.18028 14.2285 6.65113 12.3489 6.65113V5.65695C14.7766 5.65695 16.7518 7.63209 16.7518 10.0598H15.7576Z" fill="#1160A5"/>
</g>
<defs>
<clipPath id="clip0_1922_510">
<rect width="16.7" height="16.7" fill="white" transform="translate(4 4)"/>
</clipPath>
</defs>
</svg>
