<svg width="50" height="50" viewBox="0 0 50 50" fill="none" xmlns="http://www.w3.org/2000/svg">
<circle cx="25" cy="25" r="25" fill="#E8F7FF"/>
<path d="M28.4224 22.3277L23.3642 27.3858L21.5702 25.5856C21.2401 25.2554 20.7106 25.2554 20.3804 25.5856C20.0503 25.9157 20.0503 26.4452 20.3804 26.7754L22.7725 29.1674C22.9344 29.3294 23.1524 29.4166 23.3642 29.4166C23.576 29.4166 23.794 29.3356 23.956 29.1674L29.6059 23.5175C29.9361 23.1873 29.9361 22.6578 29.6059 22.3277C29.282 21.9975 28.7525 21.9975 28.4224 22.3277Z" fill="#15AEE5"/>
<path d="M37.9918 19.9792C37.9918 18.6462 37.9918 17.3194 37.9918 15.9863C37.9918 15.3821 37.7551 14.6283 36.6401 14.485C36.4034 14.4539 36.1667 14.429 35.9362 14.3978C35.2136 14.3169 34.5346 14.2359 33.8743 14.0864C31.2954 13.5195 28.8224 12.3671 26.0815 10.461C25.714 10.2056 25.4212 10 25.0039 10C24.5865 10 24.2813 10.2118 23.9324 10.4547C20.2697 12.9838 16.9557 14.267 13.5109 14.4788C12.4582 14.5473 12.0035 15.0332 12.0035 16.1047C12.0035 16.9705 12.0035 17.8364 12.0035 18.7022C11.9972 21.1005 11.9972 23.586 12.0221 26.0278C12.0284 26.8875 12.1405 27.7782 12.3461 28.6815C12.8257 30.7807 13.9283 32.6806 15.7161 34.4809C17.9898 36.7733 20.8427 38.5486 24.4432 39.9066C24.6052 39.9689 24.7921 40 24.9852 40C25.2219 40 25.4711 39.9502 25.6766 39.8567C25.8884 39.7633 26.1002 39.6761 26.312 39.5826C27.1966 39.2027 28.106 38.8102 28.9844 38.3493C31.8934 36.8106 34.0861 35.0042 35.6932 32.8239C37.1073 30.9053 37.8361 28.9805 37.9295 26.9435C37.9482 26.5386 37.9607 26.1088 37.9669 25.6292C37.9669 25.6229 37.9669 25.6105 37.9669 25.6042L37.9981 21.549C37.9981 21.5303 37.9981 21.5116 37.9981 21.4992V21.4182L37.9918 19.9792ZM36.3099 21.3372V21.3434V21.4556C36.3099 21.468 36.3099 21.4805 36.3099 21.4929L36.2788 25.4485V25.5731C36.2788 25.5793 36.2788 25.5855 36.2788 25.5918C36.2726 26.0652 36.2601 26.4826 36.2476 26.875C36.1729 28.5631 35.55 30.1827 34.3415 31.8272C32.8839 33.8019 30.878 35.4527 28.1995 36.8667C27.3834 37.2965 26.4989 37.6765 25.6517 38.044C25.4399 38.1375 25.2281 38.2247 25.0163 38.3181C25.0101 38.3181 25.0039 38.3181 24.9976 38.3181C21.6463 37.0473 18.9989 35.4091 16.9121 33.2973C15.3548 31.7213 14.3955 30.0893 13.9906 28.3015C13.8099 27.5166 13.7165 26.7442 13.7103 26.0091C13.6854 23.5735 13.6916 21.1005 13.6916 18.7022C13.6916 17.8488 13.6916 17.0017 13.6916 16.1483C17.4291 15.8991 20.986 14.5287 24.8855 11.8376C24.9167 11.8127 24.9603 11.7878 25.0039 11.7566C25.0413 11.7816 25.0849 11.8127 25.1222 11.8376C28.0064 13.8497 30.7535 15.1204 33.513 15.7309C34.2605 15.8929 35.0143 15.9801 35.7431 16.0673C35.9362 16.0922 36.1231 16.1109 36.3099 16.1358C36.3099 17.3941 36.3099 18.6586 36.3099 19.9169V21.3372Z" fill="#15AEE5"/>
</svg>
