<svg width="50" height="50" viewBox="0 0 50 50" fill="none" xmlns="http://www.w3.org/2000/svg">
<circle cx="25" cy="25" r="25" fill="#E8F7FF"/>
<g clip-path="url(#clip0_1992_330)">
<path d="M33.4021 16.2127C33.2252 17.1309 32.7811 18.0074 32.0703 18.7182L25.6982 25.0902C25.3121 25.4764 24.6863 25.4764 24.3002 25.0902L17.9281 18.7182C16.9813 17.7713 16.5078 16.5303 16.5078 15.2887C16.5078 14.0477 16.9813 12.8066 17.9281 11.8598C19.8219 9.96602 22.8922 9.96602 24.7859 11.8598C24.8445 11.9184 24.9219 11.9482 24.9992 11.9482C25.0766 11.9482 25.1539 11.9184 25.2125 11.8598C26.1594 10.9129 27.4004 10.4395 28.6414 10.4395C29.8824 10.4395 31.1234 10.9129 32.0703 11.8598C32.7283 12.5178 33.1578 13.3182 33.3582 14.1619" stroke="#15AEE5" stroke-width="0.878906" stroke-miterlimit="10" stroke-linecap="round" stroke-linejoin="round"/>
<path d="M13.8984 33.124L15.8244 35.609C15.9943 35.8281 16.0869 36.0971 16.0869 36.3748V36.6871" stroke="#15AEE5" stroke-width="0.878906" stroke-miterlimit="10" stroke-linecap="round" stroke-linejoin="round"/>
<path d="M12.6352 31.498L10.6337 28.9146C10.4825 28.7194 10.4145 28.4722 10.4444 28.2273L11.328 20.9669C11.434 20.0921 12.286 19.5108 13.1391 19.73C13.7848 19.8958 14.2354 20.4776 14.2354 21.1433C14.2354 21.148 14.2354 21.1526 14.2354 21.1573L14.1762 27.1034C14.1745 27.3073 14.2389 27.506 14.3596 27.67L15.651 29.4167" stroke="#15AEE5" stroke-width="0.878906" stroke-miterlimit="10" stroke-linecap="round" stroke-linejoin="round"/>
<path d="M16.7902 30.9712L15.657 29.4167C15.4877 29.1841 15.4062 28.9146 15.4062 28.6474C15.4062 28.2431 15.5926 27.8452 15.9441 27.5886C16.5342 27.1585 17.3621 27.2945 17.7834 27.891L20.3416 31.5115C20.7641 32.1097 20.9914 32.8245 20.9914 33.557V36.687" stroke="#15AEE5" stroke-width="0.878906" stroke-miterlimit="10" stroke-linecap="round" stroke-linejoin="round"/>
<path d="M21.746 39.5606H15.3281C15.1339 39.5606 14.9766 39.4032 14.9766 39.2091V37.0386C14.9766 36.8444 15.1339 36.687 15.3281 36.687H21.746C21.9402 36.687 22.0976 36.8444 22.0976 37.0386V39.2091C22.0976 39.4032 21.9401 39.5606 21.746 39.5606Z" stroke="#15AEE5" stroke-width="0.878906" stroke-miterlimit="10" stroke-linecap="round" stroke-linejoin="round"/>
<path d="M33.9141 36.687V36.3747C33.9141 36.097 34.0066 35.828 34.1766 35.6089L39.3645 28.9146C39.5156 28.7194 39.5836 28.4722 39.5537 28.2273L38.6701 20.9669C38.5641 20.0921 37.7121 19.5108 36.859 19.73C36.2133 19.8958 35.7627 20.4776 35.7627 21.1433C35.7627 21.148 35.7627 21.1526 35.7627 21.1573L35.8219 27.1034C35.8236 27.3073 35.7592 27.506 35.6385 27.67L34.3471 29.4167" stroke="#15AEE5" stroke-width="0.878906" stroke-miterlimit="10" stroke-linecap="round" stroke-linejoin="round"/>
<path d="M29.0156 36.687V33.557C29.0156 32.8245 29.243 32.1097 29.6654 31.5115L32.2236 27.891C32.6449 27.2945 33.4729 27.1585 34.0629 27.5886C34.4145 27.8452 34.6008 28.2431 34.6008 28.6474C34.6008 28.9146 34.5193 29.1841 34.35 29.4167L33.2168 30.9712" stroke="#15AEE5" stroke-width="0.878906" stroke-miterlimit="10" stroke-linecap="round" stroke-linejoin="round"/>
<path d="M28.25 39.5606H34.6679C34.8621 39.5606 35.0195 39.4032 35.0195 39.2091V37.0386C35.0195 36.8444 34.8621 36.687 34.6679 36.687H28.25C28.0558 36.687 27.8984 36.8444 27.8984 37.0386V39.2091C27.8984 39.4032 28.0559 39.5606 28.25 39.5606Z" stroke="#15AEE5" stroke-width="0.878906" stroke-miterlimit="10" stroke-linecap="round" stroke-linejoin="round"/>
<path d="M29.0105 21.7761C29.0023 20.3974 27.8832 19.283 26.5027 19.283H23.4922C22.1117 19.283 20.9926 20.3974 20.9844 21.7761" stroke="#15AEE5" stroke-width="0.878906" stroke-miterlimit="10" stroke-linecap="round" stroke-linejoin="round"/>
<path d="M25.0035 19.283C26.481 19.283 27.6788 18.0853 27.6788 16.6077C27.6788 15.1302 26.481 13.9324 25.0035 13.9324C23.5259 13.9324 22.3281 15.1302 22.3281 16.6077C22.3281 18.0853 23.5259 19.283 25.0035 19.283Z" stroke="#15AEE5" stroke-width="0.878906" stroke-miterlimit="10" stroke-linecap="round" stroke-linejoin="round"/>
</g>
<defs>
<clipPath id="clip0_1992_330">
<rect width="30" height="30" fill="white" transform="translate(10 10)"/>
</clipPath>
</defs>
</svg>
