<svg width="20" height="20" viewBox="0 0 20 20" fill="none" xmlns="http://www.w3.org/2000/svg">
<g clip-path="url(#clip0_2363_84)">
<path d="M0.625 9.13937V10.8609C0.625 11.0334 0.765 11.1734 0.9375 11.1734H2.28406C2.79344 14.5697 5.43031 17.2066 8.82687 17.7159V19.0628C8.82687 19.2353 8.96688 19.3753 9.13937 19.3753H10.8609C11.0334 19.3753 11.1734 19.2353 11.1734 19.0628V17.7159C14.57 17.2069 17.2066 14.57 17.7159 11.1734H19.0628C19.2353 11.1734 19.3753 11.0334 19.3753 10.8609V9.13937C19.3753 8.96688 19.2353 8.82687 19.0628 8.82687H17.7159C17.2069 5.43031 14.57 2.79375 11.1734 2.28437V0.9375C11.1734 0.765 11.0334 0.625 10.8609 0.625H9.13937C8.96688 0.625 8.82687 0.765 8.82687 0.9375V2.28437C5.43062 2.79344 2.79375 5.43031 2.28406 8.82687H0.9375C0.765 8.82687 0.625 8.96688 0.625 9.13937ZM1.25 9.45187H2.55813C2.71688 9.45187 2.85063 9.33281 2.86875 9.175C3.25031 5.84344 5.84344 3.25031 9.175 2.86906C9.33281 2.85094 9.45187 2.7175 9.45187 2.55844V1.25H10.5484V2.55844C10.5484 2.71719 10.6675 2.85094 10.8253 2.86906C14.1041 3.24437 16.7563 5.89625 17.1313 9.175C17.1494 9.33281 17.2828 9.45187 17.4419 9.45187H18.7503V10.5484H17.4419C17.2831 10.5484 17.1494 10.6675 17.1313 10.8253C16.7559 14.1041 14.1041 16.7563 10.8253 17.1313C10.6675 17.1494 10.5484 17.2828 10.5484 17.4419V18.7503H9.45187V17.4422C9.45187 17.2834 9.33281 17.1497 9.175 17.1316C5.84344 16.7503 3.25031 14.1569 2.86875 10.8253C2.85063 10.6675 2.71719 10.5484 2.55813 10.5484H1.25V9.45187Z" fill="url(#paint0_linear_2363_84)"/>
<path d="M11.0079 9.68757H10.3123V8.99194C10.3123 8.81944 10.1723 8.67944 9.99982 8.67944C9.82732 8.67944 9.68732 8.81944 9.68732 8.99194V9.68757H8.9917C8.8192 9.68757 8.6792 9.82757 8.6792 10.0001C8.6792 10.1726 8.8192 10.3126 8.9917 10.3126H9.68732V11.0082C9.68732 11.1807 9.82732 11.3207 9.99982 11.3207C10.1723 11.3207 10.3123 11.1807 10.3123 11.0082V10.3126H11.0079C11.1804 10.3126 11.3204 10.1726 11.3204 10.0001C11.3204 9.82757 11.1804 9.68757 11.0079 9.68757Z" fill="url(#paint1_linear_2363_84)"/>
<path d="M10.0001 16.4C10.2017 16.4 10.4023 16.3907 10.601 16.3722C11.9929 16.2422 13.3013 15.6628 14.337 14.7082C15.6479 13.4988 16.4001 11.7832 16.4001 10.0003C16.4001 6.47159 13.5288 3.60034 10.0001 3.60034C6.47135 3.60034 3.6001 6.47128 3.6001 10C3.6001 11.7828 4.35197 13.4985 5.66322 14.7078C6.84666 15.7991 8.38666 16.4 10.0001 16.4ZM9.47447 15.7507C9.41697 15.7453 9.36041 15.735 9.30322 15.7282C9.1876 15.7141 9.07166 15.7003 8.9576 15.6797C8.8901 15.6675 8.82385 15.65 8.75697 15.6353C8.65478 15.6128 8.5526 15.591 8.45197 15.5632C8.38166 15.5438 8.31291 15.5197 8.24322 15.4975C8.14822 15.4672 8.05353 15.4372 7.9601 15.4019C7.88979 15.3753 7.82103 15.345 7.75166 15.316C7.66197 15.2782 7.5726 15.2397 7.4851 15.1975C7.41635 15.1641 7.34885 15.1278 7.28135 15.0919C7.19635 15.0466 7.11197 15 7.02916 14.9503C6.96291 14.9107 6.89791 14.8685 6.83322 14.826C6.7526 14.7732 6.67322 14.7185 6.5951 14.6616C6.53228 14.6157 6.47041 14.5682 6.40947 14.5197C6.37322 14.491 6.33854 14.46 6.30322 14.4307C6.5851 14.1222 6.98229 13.9438 7.40885 13.9438H8.9651C9.1376 13.9438 9.2776 13.8038 9.2776 13.6313V13.0072C9.29385 13.0113 9.31135 13.0128 9.3276 13.0166C9.41228 13.0369 9.49822 13.0525 9.5851 13.065C9.60697 13.0682 9.62854 13.0725 9.65041 13.0753C9.76541 13.0891 9.88166 13.0982 9.99947 13.0982C10.1173 13.0982 10.2335 13.0891 10.3485 13.0753C10.3704 13.0728 10.3917 13.0682 10.4132 13.0653C10.5004 13.0528 10.5867 13.0369 10.672 13.0166C10.6882 13.0128 10.7054 13.0113 10.7213 13.0072V13.6313C10.7213 13.8038 10.8613 13.9438 11.0338 13.9438H12.5901C13.0167 13.9438 13.4135 14.1222 13.6957 14.4307C13.6601 14.4603 13.6254 14.4913 13.5895 14.52C13.5285 14.5685 13.4667 14.616 13.4042 14.6616C13.326 14.7188 13.2463 14.7735 13.1657 14.8266C13.1013 14.8691 13.0363 14.9107 12.9704 14.9503C12.8873 15.0003 12.8029 15.0469 12.7176 15.0922C12.6504 15.1282 12.5832 15.1644 12.5145 15.1975C12.4267 15.24 12.337 15.2785 12.2473 15.3163C12.1782 15.3453 12.1095 15.3757 12.0395 15.4019C11.9463 15.4369 11.8513 15.4672 11.7563 15.4975C11.687 15.5197 11.6179 15.5435 11.5476 15.5632C11.447 15.591 11.3448 15.6128 11.2429 15.6353C11.176 15.65 11.1098 15.6672 11.0423 15.6797C10.9282 15.7007 10.8123 15.7144 10.6967 15.7282C10.6395 15.735 10.5829 15.7453 10.5254 15.7507C10.3513 15.7663 10.1763 15.775 9.99979 15.775C9.82322 15.775 9.64822 15.7663 9.47416 15.7507H9.47447ZM12.5895 9.08159C12.8226 9.08159 13.012 9.27097 13.012 9.50409V9.70347C13.012 9.93753 12.8226 10.1278 12.561 10.1278C12.3988 10.1278 12.2635 10.2519 12.2495 10.4138C12.1788 11.2363 11.6651 11.9522 10.907 12.2832C10.836 12.3147 10.7632 12.3422 10.6895 12.366C10.266 12.5007 9.79385 12.5038 9.36635 12.3807C9.27291 12.3535 9.18041 12.3222 9.09103 12.2825C8.33478 11.9522 7.82104 11.2363 7.75041 10.4138C7.73666 10.2522 7.57291 10.1278 7.41072 10.1278C7.21072 10.1278 7.03635 9.98565 6.99729 9.79628C6.99166 9.76628 6.98822 9.73534 6.98822 9.70347V9.50409C6.98822 9.47315 6.99166 9.44253 6.99572 9.41972C7.03635 9.22378 7.21072 9.08128 7.42822 9.08128C7.60072 9.08128 7.74072 8.94128 7.74072 8.76878V8.48034C7.74072 7.38378 8.63353 6.4919 9.73135 6.4919H10.2688C11.3663 6.4919 12.2595 7.38378 12.2595 8.48034V8.76878C12.2595 8.94128 12.417 9.08128 12.5898 9.08128L12.5895 9.08159ZM10.0001 4.22503C13.1845 4.22503 15.7751 6.81565 15.7751 10C15.7751 11.495 15.1829 12.9335 14.1504 14.0057C13.7513 13.5719 13.1932 13.3188 12.5907 13.3188H11.347V12.7585C12.1326 12.3444 12.6848 11.5957 12.8388 10.7225C13.2963 10.61 13.637 10.1957 13.637 9.70315V9.50378C13.637 9.0319 13.3235 8.6319 12.8842 8.50128V8.48034C12.8842 7.0394 11.711 5.8669 10.2685 5.8669H9.73104C8.28885 5.8669 7.11541 7.0394 7.11541 8.48034V8.49909C6.75197 8.6069 6.46291 8.90909 6.38197 9.29972C6.36979 9.36628 6.3626 9.43503 6.3626 9.50409V9.70347C6.3626 9.77472 6.36979 9.84347 6.38322 9.91628C6.46479 10.3116 6.76728 10.6188 7.15978 10.7185C7.31291 11.5938 7.86603 12.345 8.6526 12.7591V13.3191H7.40885C6.80666 13.3191 6.24822 13.5722 5.84916 14.006C4.81635 12.9335 4.22447 11.4953 4.22447 10.0003C4.22447 6.81597 6.8151 4.22534 9.99947 4.22534L10.0001 4.22503Z" fill="url(#paint2_linear_2363_84)"/>
</g>
<defs>
<linearGradient id="paint0_linear_2363_84" x1="10.0002" y1="0.625" x2="10.0002" y2="19.3753" gradientUnits="userSpaceOnUse">
<stop stop-color="#005C96"/>
<stop offset="1" stop-color="#15AEE5"/>
</linearGradient>
<linearGradient id="paint1_linear_2363_84" x1="9.99982" y1="8.67944" x2="9.99982" y2="11.3207" gradientUnits="userSpaceOnUse">
<stop stop-color="#005C96"/>
<stop offset="1" stop-color="#15AEE5"/>
</linearGradient>
<linearGradient id="paint2_linear_2363_84" x1="10.0001" y1="3.60034" x2="10.0001" y2="16.4" gradientUnits="userSpaceOnUse">
<stop stop-color="#005C96"/>
<stop offset="1" stop-color="#15AEE5"/>
</linearGradient>
<clipPath id="clip0_2363_84">
<rect width="20" height="20" fill="white"/>
</clipPath>
</defs>
</svg>
