<svg width="20" height="20" viewBox="0 0 20 20" fill="none" xmlns="http://www.w3.org/2000/svg">
<g clip-path="url(#clip0_2363_7)">
<path d="M9.16683 15.2777H8.61128V14.7134C9.59004 14.6708 10.5501 14.4065 11.4033 13.9376C11.5378 13.8638 11.5869 13.6951 11.513 13.5606C11.4392 13.4263 11.2709 13.3775 11.1358 13.451C10.2836 13.9192 9.31454 14.1666 8.3335 14.1666C7.30472 14.1666 6.29642 13.8961 5.41643 13.384C4.53006 12.8745 3.79221 12.1367 3.28196 11.2491C2.77049 10.3705 2.50017 9.36216 2.50017 8.33324C2.50017 7.30433 2.77049 6.29603 3.28277 5.41604C3.79221 4.5298 4.53006 3.79196 5.41765 3.2817C6.29642 2.77037 7.30472 2.49991 8.3335 2.49991C9.36228 2.49991 10.3706 2.77037 11.2506 3.28252C12.1369 3.79196 12.8748 4.5298 13.385 5.41739C13.8965 6.29603 14.1668 7.30433 14.1668 8.33325C14.1668 8.38913 14.1672 8.44501 14.1624 8.50089C14.1491 8.65388 14.2622 8.78843 14.415 8.80173C14.5462 8.81563 14.6583 8.73065 14.6977 8.61103H15.2779V9.16658C15.2779 9.32012 15.4023 9.44436 15.5557 9.44436C15.7091 9.44436 15.8335 9.32012 15.8335 9.16658V7.49992C15.8335 7.34638 15.7091 7.22214 15.5557 7.22214C15.4023 7.22214 15.2779 7.34638 15.2779 7.49992V8.05547H14.7133C14.6727 7.11899 14.428 6.20568 13.9976 5.38391L14.4864 5.10164L14.7642 5.5826C14.8157 5.67185 14.909 5.72149 15.0051 5.72149C15.0521 5.72149 15.1 5.70955 15.1437 5.68433C15.2766 5.60756 15.322 5.43774 15.2454 5.30482L14.4121 3.86168C14.3352 3.72849 14.1649 3.68292 14.0326 3.75996C13.8996 3.83673 13.8542 4.00654 13.9308 4.13946L14.2086 4.62047L13.7194 4.90291C13.2192 4.11522 12.5508 3.44681 11.7639 2.94731L12.0463 2.45814L12.5274 2.73592C12.5712 2.76115 12.619 2.77309 12.666 2.77309C12.7621 2.77309 12.8554 2.72317 12.9069 2.6342C12.9836 2.50127 12.9381 2.33146 12.8052 2.25469L11.3618 1.42136C11.2285 1.34432 11.0591 1.39044 10.9823 1.52309C10.9057 1.65601 10.9511 1.82582 11.084 1.90259L11.5651 2.18033L11.2828 2.66924C10.4602 2.23865 9.54734 1.99406 8.61128 1.95349V1.38881H9.16683C9.32024 1.38881 9.44461 1.26457 9.44461 1.11103C9.44461 0.957494 9.32024 0.833252 9.16683 0.833252H7.50017C7.34676 0.833252 7.22239 0.957494 7.22239 1.11103C7.22239 1.26457 7.34676 1.38881 7.50017 1.38881H8.05572V1.95349C7.11929 1.99407 6.20614 2.23881 5.38414 2.66916L5.10191 2.18033L5.58298 1.90259C5.7159 1.82582 5.76134 1.656 5.68471 1.52309C5.60767 1.39016 5.43826 1.34432 5.3052 1.42136L3.86179 2.25469C3.72887 2.33146 3.68343 2.50128 3.76007 2.6342C3.81161 2.72344 3.90492 2.77309 4.00095 2.77309C4.04802 2.77309 4.09576 2.76115 4.13957 2.73592L4.6207 2.45814L4.90312 2.94727C4.11544 3.4475 3.44709 4.11606 2.94757 4.90289L2.4584 4.62047L2.73617 4.13946C2.8128 4.00654 2.76736 3.83672 2.63444 3.75995C2.50138 3.68292 2.33157 3.72849 2.25494 3.86168L1.4216 5.30482C1.34497 5.43774 1.39041 5.60755 1.52333 5.68432C1.567 5.70955 1.61488 5.72149 1.66195 5.72149C1.75797 5.72149 1.85129 5.67185 1.90283 5.5826L2.18056 5.10164L2.66945 5.38393C2.2388 6.20634 1.9943 7.1194 1.95373 8.05547H1.38905V7.49992C1.38905 7.34638 1.26468 7.22214 1.11127 7.22214C0.957871 7.22214 0.833496 7.34638 0.833496 7.49992V9.16658C0.833496 9.32012 0.957871 9.44436 1.11127 9.44436C1.26468 9.44436 1.38905 9.32012 1.38905 9.16658V8.61103H1.95373C1.9943 9.54751 2.23897 10.4608 2.6694 11.2826L2.18056 11.5649L1.90283 11.0839C1.82579 10.9507 1.65598 10.9054 1.52333 10.9822C1.39041 11.0589 1.34497 11.2288 1.4216 11.3617L2.25494 12.8048C2.30648 12.8941 2.39979 12.9437 2.49582 12.9437C2.54289 12.9437 2.59077 12.9318 2.63444 12.9065C2.76736 12.8298 2.8128 12.66 2.73617 12.527L2.4584 12.046L2.94759 11.7636C3.4478 12.5513 4.11624 13.2197 4.90314 13.7192L4.6207 14.2084L4.13957 13.9306C4.0061 13.8538 3.83684 13.8997 3.76007 14.0323C3.68343 14.1652 3.72887 14.335 3.86179 14.4118L5.3052 15.2451C5.34901 15.2704 5.39676 15.2823 5.44382 15.2823C5.53985 15.2823 5.63317 15.2324 5.68471 15.1434C5.76134 15.0105 5.7159 14.8407 5.58298 14.7639L5.10191 14.4862L5.38421 13.9973C6.2068 14.4278 7.11966 14.6724 8.05572 14.713V15.2777H7.50017C7.34676 15.2777 7.22239 15.4019 7.22239 15.5555C7.22239 15.709 7.34676 15.8332 7.50017 15.8332H9.16683C9.32024 15.8332 9.44461 15.709 9.44461 15.5555C9.44461 15.4019 9.32024 15.2777 9.16683 15.2777Z" fill="url(#paint0_linear_2363_7)"/>
<path d="M10.278 11.9444C10.4314 11.9444 10.5558 11.8201 10.5558 11.6666V9.8993C10.5558 9.34321 10.2254 8.8419 9.71403 8.62272L7.17198 7.53331C6.86518 7.40175 6.66688 7.10091 6.66688 6.76725V4.99995C6.66688 4.84641 6.54251 4.72217 6.38911 4.72217C6.2357 4.72217 6.11133 4.84641 6.11133 4.99995V6.76725C6.11133 7.32335 6.44173 7.82465 6.95307 8.04383L9.49512 9.13325C9.80192 9.26481 10.0002 9.56565 10.0002 9.8993V11.6666C10.0002 11.8201 10.1246 11.9444 10.278 11.9444Z" fill="url(#paint1_linear_2363_7)"/>
<path d="M10.5556 4.99995C10.5556 4.84641 10.4312 4.72217 10.2778 4.72217C10.1244 4.72217 10 4.84641 10 4.99995V8.0555C10 8.20904 10.1244 8.33328 10.2778 8.33328C10.4312 8.33328 10.5556 8.20904 10.5556 8.0555V4.99995Z" fill="url(#paint2_linear_2363_7)"/>
<path d="M6.11133 8.33344V11.6668C6.11133 11.8203 6.2357 11.9446 6.38911 11.9446C6.54251 11.9446 6.66688 11.8203 6.66688 11.6668V8.33344C6.66688 8.17991 6.54251 8.05566 6.38911 8.05566C6.2357 8.05566 6.11133 8.17991 6.11133 8.33344Z" fill="url(#paint3_linear_2363_7)"/>
<path d="M7.49995 5.55556H9.16661C9.32002 5.55556 9.44439 5.43131 9.44439 5.27778C9.44439 5.12424 9.32002 5 9.16661 5H7.49995C7.34654 5 7.22217 5.12424 7.22217 5.27778C7.22217 5.43131 7.34654 5.55556 7.49995 5.55556Z" fill="url(#paint4_linear_2363_7)"/>
<path d="M7.49995 6.38881H9.16661C9.32002 6.38881 9.44439 6.26457 9.44439 6.11103C9.44439 5.95749 9.32002 5.83325 9.16661 5.83325H7.49995C7.34654 5.83325 7.22217 5.95749 7.22217 6.11103C7.22217 6.26457 7.34654 6.38881 7.49995 6.38881Z" fill="url(#paint5_linear_2363_7)"/>
<path d="M7.49995 7.2223H9.16661C9.32002 7.2223 9.44439 7.09806 9.44439 6.94453C9.44439 6.79099 9.32002 6.66675 9.16661 6.66675H7.49995C7.34654 6.66675 7.22217 6.79099 7.22217 6.94453C7.22217 7.09806 7.34654 7.2223 7.49995 7.2223Z" fill="url(#paint6_linear_2363_7)"/>
<path d="M9.16661 9.44434H7.49995C7.34654 9.44434 7.22217 9.56858 7.22217 9.72211C7.22217 9.87565 7.34654 9.99989 7.49995 9.99989H9.16661C9.32002 9.99989 9.44439 9.87565 9.44439 9.72211C9.44439 9.56858 9.32002 9.44434 9.16661 9.44434Z" fill="url(#paint7_linear_2363_7)"/>
<path d="M9.16661 10.2778H7.49995C7.34654 10.2778 7.22217 10.4021 7.22217 10.5556C7.22217 10.7091 7.34654 10.8334 7.49995 10.8334H9.16661C9.32002 10.8334 9.44439 10.7091 9.44439 10.5556C9.44439 10.4021 9.32002 10.2778 9.16661 10.2778Z" fill="url(#paint8_linear_2363_7)"/>
<path d="M9.16661 11.1111H7.49995C7.34654 11.1111 7.22217 11.2353 7.22217 11.3889C7.22217 11.5424 7.34654 11.6666 7.49995 11.6666H9.16661C9.32002 11.6666 9.44439 11.5424 9.44439 11.3889C9.44439 11.2353 9.32002 11.1111 9.16661 11.1111Z" fill="url(#paint9_linear_2363_7)"/>
<path d="M18.3333 17.5001H18.0555V15.0001C18.0555 12.9494 16.4591 11.2687 14.4444 11.1252V9.72228C14.4444 9.36063 14.2115 9.05516 13.8888 8.94013V8.61117C13.8888 8.15164 13.515 7.77783 13.0555 7.77783C12.596 7.77783 12.2222 8.15164 12.2222 8.61117V8.94013C11.8995 9.05516 11.6666 9.36063 11.6666 9.72228V13.0556C11.6666 13.5151 12.0404 13.8889 12.4999 13.8889H13.6111C14.0706 13.8889 14.4444 13.5151 14.4444 13.0556V12.7971C15.5388 12.9345 16.3888 13.869 16.3888 15.0001V17.5001H13.3333V16.6667H14.7222C14.8756 16.6667 14.9999 16.5425 14.9999 16.3889C14.9999 16.2354 14.8756 16.1112 14.7222 16.1112H11.3888C11.2354 16.1112 11.1111 16.2354 11.1111 16.3889C11.1111 16.5425 11.2354 16.6667 11.3888 16.6667H12.7777V17.5001H10.5555C10.096 17.5001 9.72217 17.8739 9.72217 18.3334C9.72217 18.7929 10.096 19.1667 10.5555 19.1667H18.3333C18.7928 19.1667 19.1666 18.7929 19.1666 18.3334C19.1666 17.8739 18.7928 17.5001 18.3333 17.5001ZM12.7777 8.61117C12.7777 8.4579 12.9024 8.33339 13.0555 8.33339C13.2086 8.33339 13.3333 8.4579 13.3333 8.61117V8.88894H12.7777V8.61117ZM13.8888 13.0556C13.8888 13.2089 13.7642 13.3334 13.6111 13.3334H12.4999C12.3468 13.3334 12.2222 13.2089 12.2222 13.0556V9.72228C12.2222 9.56901 12.3468 9.4445 12.4999 9.4445H13.6111C13.7642 9.4445 13.8888 9.56901 13.8888 9.72228V13.0556ZM14.4444 12.2364V11.6808C16.1526 11.8227 17.4999 13.2557 17.4999 15.0001V17.5001H16.9444V15.0001C16.9444 13.5622 15.8461 12.3762 14.4444 12.2364ZM18.3333 18.6112H10.5555C10.4024 18.6112 10.2777 18.4867 10.2777 18.3334C10.2777 18.1801 10.4024 18.0556 10.5555 18.0556H18.3333C18.4864 18.0556 18.6111 18.1801 18.6111 18.3334C18.6111 18.4867 18.4864 18.6112 18.3333 18.6112Z" fill="url(#paint10_linear_2363_7)"/>
<path d="M13.8888 14.7223C14.0422 14.7223 14.1666 14.5981 14.1666 14.4445C14.1666 14.291 14.0422 14.1667 13.8888 14.1667H12.2221C12.0687 14.1667 11.9443 14.291 11.9443 14.4445C11.9443 14.5981 12.0687 14.7223 12.2221 14.7223H13.8888Z" fill="url(#paint11_linear_2363_7)"/>
</g>
<defs>
<linearGradient id="paint0_linear_2363_7" x1="8.3335" y1="0.833252" x2="8.3335" y2="15.8332" gradientUnits="userSpaceOnUse">
<stop stop-color="#005C96"/>
<stop offset="1" stop-color="#15AEE5"/>
</linearGradient>
<linearGradient id="paint1_linear_2363_7" x1="8.33355" y1="4.72217" x2="8.33355" y2="11.9444" gradientUnits="userSpaceOnUse">
<stop stop-color="#005C96"/>
<stop offset="1" stop-color="#15AEE5"/>
</linearGradient>
<linearGradient id="paint2_linear_2363_7" x1="10.2778" y1="4.72217" x2="10.2778" y2="8.33328" gradientUnits="userSpaceOnUse">
<stop stop-color="#005C96"/>
<stop offset="1" stop-color="#15AEE5"/>
</linearGradient>
<linearGradient id="paint3_linear_2363_7" x1="6.38911" y1="8.05566" x2="6.38911" y2="11.9446" gradientUnits="userSpaceOnUse">
<stop stop-color="#005C96"/>
<stop offset="1" stop-color="#15AEE5"/>
</linearGradient>
<linearGradient id="paint4_linear_2363_7" x1="8.33328" y1="5" x2="8.33328" y2="5.55556" gradientUnits="userSpaceOnUse">
<stop stop-color="#005C96"/>
<stop offset="1" stop-color="#15AEE5"/>
</linearGradient>
<linearGradient id="paint5_linear_2363_7" x1="8.33328" y1="5.83325" x2="8.33328" y2="6.38881" gradientUnits="userSpaceOnUse">
<stop stop-color="#005C96"/>
<stop offset="1" stop-color="#15AEE5"/>
</linearGradient>
<linearGradient id="paint6_linear_2363_7" x1="8.33328" y1="6.66675" x2="8.33328" y2="7.2223" gradientUnits="userSpaceOnUse">
<stop stop-color="#005C96"/>
<stop offset="1" stop-color="#15AEE5"/>
</linearGradient>
<linearGradient id="paint7_linear_2363_7" x1="8.33328" y1="9.44434" x2="8.33328" y2="9.99989" gradientUnits="userSpaceOnUse">
<stop stop-color="#005C96"/>
<stop offset="1" stop-color="#15AEE5"/>
</linearGradient>
<linearGradient id="paint8_linear_2363_7" x1="8.33328" y1="10.2778" x2="8.33328" y2="10.8334" gradientUnits="userSpaceOnUse">
<stop stop-color="#005C96"/>
<stop offset="1" stop-color="#15AEE5"/>
</linearGradient>
<linearGradient id="paint9_linear_2363_7" x1="8.33328" y1="11.1111" x2="8.33328" y2="11.6666" gradientUnits="userSpaceOnUse">
<stop stop-color="#005C96"/>
<stop offset="1" stop-color="#15AEE5"/>
</linearGradient>
<linearGradient id="paint10_linear_2363_7" x1="14.4444" y1="7.77783" x2="14.4444" y2="19.1667" gradientUnits="userSpaceOnUse">
<stop stop-color="#005C96"/>
<stop offset="1" stop-color="#15AEE5"/>
</linearGradient>
<linearGradient id="paint11_linear_2363_7" x1="13.0554" y1="14.1667" x2="13.0554" y2="14.7223" gradientUnits="userSpaceOnUse">
<stop stop-color="#005C96"/>
<stop offset="1" stop-color="#15AEE5"/>
</linearGradient>
<clipPath id="clip0_2363_7">
<rect width="20" height="20" fill="white"/>
</clipPath>
</defs>
</svg>
