<svg width="20" height="20" viewBox="0 0 20 20" fill="none" xmlns="http://www.w3.org/2000/svg">
<path d="M10.1441 4.17334H1.11953C1.00508 4.17334 0.9125 4.26592 0.9125 4.38037V16.7753C0.9125 16.8897 1.00508 16.9823 1.11953 16.9823H10.1441C10.2586 16.9823 10.3512 16.8897 10.3512 16.7753V4.38076C10.3516 4.26631 10.2586 4.17334 10.1441 4.17334ZM9.93711 16.5683H1.32656V4.58779H9.93711V16.5683ZM10.4203 3.30029H7.79805V2.8292C7.79805 2.45146 7.49062 2.14404 7.11289 2.14404H4.15078C3.77305 2.14404 3.46563 2.45146 3.46563 2.8292V3.30029H0.843359C0.399609 3.30029 0.0390625 3.66123 0.0390625 4.10459V17.0519C0.0390625 17.4952 0.399609 17.8562 0.843359 17.8562H10.4207C10.8641 17.8562 11.225 17.4956 11.225 17.0519V4.10459C11.2246 3.66123 10.8637 3.30029 10.4203 3.30029ZM10.8102 17.0519C10.8102 17.2667 10.6355 17.4417 10.4203 17.4417H0.843359C0.628516 17.4417 0.453516 17.2667 0.453516 17.0519V4.10459C0.453516 3.88975 0.628125 3.71475 0.843359 3.71475H3.67266C3.78711 3.71475 3.87969 3.62217 3.87969 3.50771V2.8292C3.87969 2.67998 4.00117 2.5585 4.15039 2.5585H7.1125C7.26172 2.5585 7.3832 2.67998 7.3832 2.8292V3.50771C7.3832 3.62217 7.47578 3.71475 7.59023 3.71475H10.4195C10.6344 3.71475 10.8094 3.88975 10.8094 4.10459V17.0519H10.8102ZM2.76602 8.4167H3.84492C4.07422 8.4167 4.26055 8.23037 4.26055 8.00107V6.92217C4.26055 6.69326 4.07422 6.50654 3.84492 6.50654H2.76602C2.53672 6.50654 2.35039 6.69287 2.35039 6.92217V8.00107C2.35078 8.23037 2.53711 8.4167 2.76602 8.4167ZM2.76602 6.92139L3.84609 6.92256L3.84531 8.00264L2.76484 8.00146L2.76602 6.92139ZM4.78867 7.01396C4.78867 6.89951 4.88125 6.80693 4.9957 6.80693H7.41562C7.53008 6.80693 7.62266 6.89951 7.62266 7.01396C7.62266 7.12842 7.53008 7.221 7.41562 7.221H4.9957C4.88125 7.22139 4.78867 7.12842 4.78867 7.01396ZM4.78867 7.90967C4.78867 7.79522 4.88125 7.70264 4.9957 7.70264H8.76523C8.87969 7.70264 8.97227 7.79522 8.97227 7.90967C8.97227 8.02412 8.87969 8.1167 8.76523 8.1167H4.9957C4.88125 8.1167 4.78867 8.02412 4.78867 7.90967ZM4.78867 9.78779C4.78867 9.67334 4.88125 9.58076 4.9957 9.58076H7.41562C7.53008 9.58076 7.62266 9.67334 7.62266 9.78779C7.62266 9.90225 7.53008 9.99482 7.41562 9.99482H4.9957C4.88125 9.99482 4.78867 9.90225 4.78867 9.78779ZM8.97266 10.6835C8.97266 10.7979 8.88008 10.8905 8.76562 10.8905H4.99609C4.88164 10.8905 4.78906 10.7979 4.78906 10.6835C4.78906 10.569 4.88164 10.4765 4.99609 10.4765H8.76562C8.88008 10.4761 8.97266 10.569 8.97266 10.6835ZM3.84492 12.0546H2.76602C2.53672 12.0546 2.35039 12.2409 2.35039 12.4702V13.5491C2.35039 13.778 2.53672 13.9647 2.76602 13.9647H3.84492C4.07422 13.9647 4.26055 13.7784 4.26055 13.5491V12.4702C4.26055 12.2409 4.07422 12.0546 3.84492 12.0546ZM3.84531 13.5499L2.76484 13.5487L2.76602 12.4687L3.84609 12.4698L3.84531 13.5499ZM4.78867 12.5616C4.78867 12.4472 4.88125 12.3546 4.9957 12.3546H7.41562C7.53008 12.3546 7.62266 12.4472 7.62266 12.5616C7.62266 12.6761 7.53008 12.7687 7.41562 12.7687H4.9957C4.88125 12.7687 4.78867 12.6761 4.78867 12.5616ZM8.97266 13.4573C8.97266 13.5718 8.88008 13.6644 8.76562 13.6644H4.99609C4.88164 13.6644 4.78906 13.5718 4.78906 13.4573C4.78906 13.3429 4.88164 13.2503 4.99609 13.2503H8.76562C8.88008 13.2499 8.97266 13.3429 8.97266 13.4573ZM2.20391 9.95576L2.35039 10.039V10.7749C2.35039 11.0038 2.53672 11.1905 2.76602 11.1905H3.84492C4.07422 11.1905 4.26055 11.0042 4.26055 10.7749C4.25195 10.6804 4.28633 9.60771 4.23242 9.5499L4.89961 8.78154C4.97461 8.69521 4.96523 8.56436 4.87891 8.48936C4.79258 8.41436 4.66172 8.42373 4.58672 8.51006L3.91172 9.2874C3.88984 9.28389 3.86797 9.28076 3.84492 9.28076H2.76602C2.57656 9.28076 2.41797 9.40889 2.36836 9.58272C2.13633 9.50303 1.99102 9.83623 2.20391 9.95576ZM2.76602 9.69482L3.55703 9.69561L3.23594 10.0655L2.76602 9.79834V9.69482ZM2.76562 10.2749C2.83984 10.3065 3.20078 10.5507 3.28125 10.537C3.33945 10.537 3.39727 10.5124 3.4375 10.4655L3.84609 9.99482L3.8457 10.7761L2.76523 10.7749L2.76562 10.2749ZM18.0902 9.61748C17.8875 9.60186 17.6961 9.62803 17.5184 9.69717C16.6785 10.0108 15.659 10.5144 14.8781 9.87764C14.6355 9.71357 14.3844 9.54365 14.0719 9.52529C13.8602 9.52607 13.3527 9.51045 13.4316 9.85107C14.2645 12.4983 17.4617 12.4765 18.2801 9.83975C18.2895 9.72607 18.2043 9.62647 18.0902 9.61748ZM17.5746 10.3882C16.6082 11.9874 14.5414 11.6358 13.9086 9.94092C14.1812 9.90771 14.3922 10.0479 14.6461 10.221C15.5816 10.9733 16.7691 10.428 17.7309 10.062C17.6688 10.1944 17.5914 10.3593 17.5746 10.3882ZM19.2516 8.72568H19.4879C19.7488 8.72568 19.9609 8.51357 19.9609 8.25264V7.52334C19.9609 7.2624 19.7488 7.05029 19.4879 7.05029H12.2262C11.9652 7.05029 11.7531 7.2624 11.7531 7.52334V8.25264C11.7531 8.51357 11.9652 8.72568 12.2262 8.72568H12.4625C12.5289 10.3882 13.3848 11.8499 14.6078 12.453C13.3844 13.0558 12.5289 14.5179 12.4625 16.1804H12.2262C11.9652 16.1804 11.7531 16.3925 11.7531 16.6534V17.3827C11.7531 17.6437 11.9652 17.8558 12.2262 17.8558H19.4883C19.7492 17.8558 19.9613 17.6437 19.9613 17.3827V16.6534C19.9613 16.3925 19.7492 16.1804 19.4883 16.1804H19.252C19.1855 14.5179 18.3301 13.0558 17.1066 12.453C18.3293 11.8499 19.1852 10.3882 19.2516 8.72568ZM12.2262 8.31123C12.1937 8.31123 12.1676 8.28467 12.1676 8.25264V7.52334C12.1676 7.49092 12.1937 7.46475 12.2262 7.46475H19.4883C19.5207 7.46475 19.5469 7.49131 19.5469 7.52334V8.25264C19.5469 8.28506 19.5207 8.31123 19.4883 8.31123H12.2262ZM19.4879 16.5948C19.5203 16.5948 19.5465 16.621 19.5465 16.6534V17.3827C19.5465 17.4151 19.5203 17.4413 19.4879 17.4413H12.2262C12.1937 17.4413 12.1676 17.4151 12.1676 17.3827V16.6534C12.1676 16.621 12.1937 16.5948 12.2262 16.5948H19.4879ZM16.4684 12.253C16.2676 12.2999 16.2672 12.6065 16.4684 12.6534C17.7914 13.0062 18.766 14.4714 18.8391 16.1808H12.8746C12.9477 14.4718 13.9223 13.0065 15.2453 12.6534C15.4461 12.6065 15.4465 12.2999 15.2453 12.253C13.9223 11.9003 12.9477 10.4351 12.8746 8.72568H18.8391C18.766 10.4347 17.7914 11.8999 16.4684 12.253ZM15.448 13.5315C15.168 13.6612 14.9008 13.6749 14.55 13.5796C14.4828 13.5604 14.4109 13.5772 14.3586 13.6229C13.8535 14.0632 13.4828 14.7187 13.3148 15.4694C13.3012 15.5308 13.316 15.5952 13.3555 15.644C13.3945 15.6933 13.4543 15.7218 13.5172 15.7218H18.1992C18.3277 15.7249 18.4332 15.5937 18.4012 15.4687C18.1938 14.6319 17.7867 13.8558 17.1313 13.478C16.7863 13.4198 16.5914 13.305 16.1453 13.3437C15.827 13.3702 15.6078 13.4636 15.448 13.5315ZM16.775 13.8237C16.8516 13.8437 16.9305 13.8644 17.0164 13.8792C17.4254 14.2089 17.7496 14.7183 17.9297 15.3073H13.7852C13.9414 14.7882 14.2078 14.3358 14.552 14.0069C14.9438 14.0937 15.2809 14.0636 15.6105 13.9124C15.882 13.7542 16.4734 13.7007 16.775 13.8237Z" fill="url(#paint0_linear_2363_76)"/>
<defs>
<linearGradient id="paint0_linear_2363_76" x1="10.0002" y1="2.14404" x2="10.0002" y2="17.8562" gradientUnits="userSpaceOnUse">
<stop stop-color="#005C96"/>
<stop offset="1" stop-color="#15AEE5"/>
</linearGradient>
</defs>
</svg>
